<svg id="Layer_1" data-name="Layer 1" xmlns="http://www.w3.org/2000/svg" viewBox="0 0 432.07 144.07"><defs><style>.cls-1{fill:#0a2a66;}.cls-2{fill:#fff;}.cls-3{fill:#37c5fd;}.cls-4{fill:#10a7e3;}.cls-5{fill:#65d0fa;}.cls-6{fill:#e6ecef;}.cls-7{fill:#789ba8;}.cls-8{font-size:4px;}.cls-12,.cls-13,.cls-8{font-family:Monaco, Monaco;}.cls-9{fill:#ccfbf0;}.cls-10{fill:#14bf96;}.cls-11{fill:#e0e0e0;}.cls-12{font-size:6.36px;}.cls-13{font-size:7px;}</style></defs><title>ISP -&amp;gt; Computer</title><rect class="cls-1" width="138.02" height="134.6" rx="2.68" ry="2.68"/><rect class="cls-2" x="5.93" y="5.78" width="126.16" height="75.71"/><path class="cls-3" d="M0,81.5H138a0,0,0,0,1,0,0v58.73a3.84,3.84,0,0,1-3.84,3.84H3.84A3.84,3.84,0,0,1,0,140.23V81.5A0,0,0,0,1,0,81.5Z"/><rect class="cls-4" x="5.93" y="88.33" width="9.17" height="8.94" rx="1.06" ry="1.06"/><rect class="cls-4" x="17.63" y="88.33" width="9.17" height="8.94" rx="1.06" ry="1.06"/><rect class="cls-4" x="29.33" y="88.33" width="9.17" height="8.94" rx="1.06" ry="1.06"/><rect class="cls-4" x="41.03" y="88.33" width="9.17" height="8.94" rx="1.06" ry="1.06"/><rect class="cls-4" x="52.73" y="88.33" width="9.17" height="8.94" rx="1.06" ry="1.06"/><rect class="cls-4" x="64.43" y="88.33" width="9.17" height="8.94" rx="1.06" ry="1.06"/><rect class="cls-4" x="76.13" y="88.33" width="9.17" height="8.94" rx="1.06" ry="1.06"/><rect class="cls-4" x="87.83" y="88.33" width="9.17" height="8.94" rx="1.06" ry="1.06"/><rect class="cls-4" x="99.53" y="88.33" width="9.17" height="8.94" rx="1.06" ry="1.06"/><rect class="cls-4" x="111.23" y="88.33" width="9.17" height="8.94" rx="1.06" ry="1.06"/><rect class="cls-4" x="122.92" y="88.33" width="9.17" height="8.94" rx="1.06" ry="1.06"/><rect class="cls-4" x="17.63" y="100.43" width="9.17" height="8.94" rx="1.06" ry="1.06"/><rect class="cls-4" x="29.33" y="100.43" width="9.17" height="8.94" rx="1.06" ry="1.06"/><rect class="cls-4" x="41.03" y="100.43" width="9.17" height="8.94" rx="1.06" ry="1.06"/><rect class="cls-4" x="52.73" y="100.43" width="9.17" height="8.94" rx="1.06" ry="1.06"/><rect class="cls-4" x="64.43" y="100.43" width="9.17" height="8.94" rx="1.06" ry="1.06"/><rect class="cls-4" x="76.13" y="100.43" width="9.17" height="8.94" rx="1.06" ry="1.06"/><rect class="cls-4" x="87.83" y="100.43" width="9.17" height="8.94" rx="1.06" ry="1.06"/><rect class="cls-4" x="99.53" y="100.43" width="9.17" height="8.94" rx="1.06" ry="1.06"/><rect class="cls-4" x="111.23" y="100.43" width="9.17" height="8.94" rx="1.06" ry="1.06"/><rect class="cls-4" x="5.93" y="112.52" width="9.17" height="8.94" rx="1.06" ry="1.06"/><rect class="cls-4" x="17.63" y="112.52" width="9.17" height="8.94" rx="1.06" ry="1.06"/><rect class="cls-4" x="29.33" y="112.52" width="9.17" height="8.94" rx="1.06" ry="1.06"/><rect class="cls-4" x="41.03" y="112.52" width="9.17" height="8.94" rx="1.06" ry="1.06"/><rect class="cls-4" x="52.73" y="112.52" width="9.17" height="8.94" rx="1.06" ry="1.06"/><rect class="cls-4" x="64.43" y="112.52" width="9.17" height="8.94" rx="1.06" ry="1.06"/><rect class="cls-4" x="76.13" y="112.52" width="9.17" height="8.94" rx="1.06" ry="1.06"/><rect class="cls-4" x="87.83" y="112.52" width="9.17" height="8.94" rx="1.06" ry="1.06"/><rect class="cls-4" x="99.53" y="112.52" width="9.17" height="8.94" rx="1.06" ry="1.06"/><rect class="cls-4" x="111.23" y="112.52" width="9.17" height="8.94" rx="1.06" ry="1.06"/><rect class="cls-4" x="122.92" y="112.52" width="9.17" height="8.94" rx="1.06" ry="1.06"/><rect class="cls-4" x="43.13" y="112.52" width="51.76" height="8.94" rx="1.06" ry="1.06"/><rect class="cls-5" x="50.68" y="125.14" width="34.51" height="14.2" rx="2.19" ry="2.19"/><rect class="cls-6" x="10" y="16" width="118.57" height="60.52" rx="2.17" ry="2.17"/><path class="cls-7" d="M10,20.05V15.17c0-2.38,2.49-4.31,5.56-4.31H122.93c3.07,0,5.56,1.93,5.56,4.31v4.88"/><ellipse class="cls-2" cx="15.77" cy="15.92" rx="1.81" ry="1.82"/><ellipse class="cls-2" cx="20.89" cy="15.92" rx="1.81" ry="1.82"/><ellipse class="cls-2" cx="26.02" cy="15.92" rx="1.81" ry="1.82"/><rect class="cls-2" x="30.55" y="12.7" width="89.55" height="5.33"/><text class="cls-8" transform="translate(32.47 16.77)">www.wikipedia.org</text><rect class="cls-2" x="12.36" y="21.98" width="113.61" height="51.71" rx="2.14" ry="2.14"/><rect class="cls-3" x="337.39" y="17.53" width="87.59" height="97.02" rx="2.06" ry="2.06"/><rect class="cls-1" x="342.11" y="38.42" width="77.48" height="6.74"/><rect class="cls-1" x="342.11" y="52.73" width="77.48" height="6.74"/><rect class="cls-1" x="342.78" y="67.05" width="77.48" height="6.74"/><rect class="cls-1" x="342.78" y="81.37" width="77.48" height="6.74"/><rect class="cls-1" x="342.78" y="95.68" width="77.48" height="6.74"/><circle class="cls-9" cx="414.2" cy="26.96" r="4.04"/><path d="M339.22,132.06h-1.35v-7.23h1.35Z"/><path d="M344.68,126.15a.39.39,0,0,1-.13.15.28.28,0,0,1-.16,0,.46.46,0,0,1-.23-.08l-.29-.17a3,3,0,0,0-.4-.17,1.46,1.46,0,0,0-.54-.08,1.49,1.49,0,0,0-.49.07.89.89,0,0,0-.35.18.66.66,0,0,0-.21.29.9.9,0,0,0-.07.37.59.59,0,0,0,.14.42,1,1,0,0,0,.38.29,2.92,2.92,0,0,0,.53.22l.62.2a6.5,6.5,0,0,1,.61.25,2.54,2.54,0,0,1,.54.36,1.68,1.68,0,0,1,.37.53,1.79,1.79,0,0,1,.15.77,2.55,2.55,0,0,1-.17.92,2.17,2.17,0,0,1-.49.74,2.37,2.37,0,0,1-.79.5,2.91,2.91,0,0,1-1.06.18,3.82,3.82,0,0,1-.68-.06,3.5,3.5,0,0,1-.65-.2,3.1,3.1,0,0,1-.57-.3,2.28,2.28,0,0,1-.48-.39l.39-.64a.37.37,0,0,1,.13-.12.37.37,0,0,1,.17-.05.47.47,0,0,1,.27.11l.35.22a2.47,2.47,0,0,0,.46.23,1.81,1.81,0,0,0,.65.1,1.33,1.33,0,0,0,.89-.27,1,1,0,0,0,.31-.78.77.77,0,0,0-.14-.47,1.15,1.15,0,0,0-.38-.3,2.93,2.93,0,0,0-.53-.21c-.2,0-.41-.11-.61-.18a6.44,6.44,0,0,1-.61-.24,2,2,0,0,1-.54-.37,1.78,1.78,0,0,1-.38-.56,2.21,2.21,0,0,1-.14-.83,1.9,1.9,0,0,1,.16-.77,2,2,0,0,1,.46-.67,2.27,2.27,0,0,1,.74-.46,2.64,2.64,0,0,1,1-.18,3.48,3.48,0,0,1,1.18.2,2.84,2.84,0,0,1,.92.56Z"/><path d="M348.67,124.83a4.2,4.2,0,0,1,1.25.17,2.54,2.54,0,0,1,.88.48,1.86,1.86,0,0,1,.51.73,2.52,2.52,0,0,1,.17.93,2.49,2.49,0,0,1-.18,1,2.07,2.07,0,0,1-.52.75,2.42,2.42,0,0,1-.88.49,3.8,3.8,0,0,1-1.23.18h-1v2.54h-1.34v-7.23Zm0,3.64a2.06,2.06,0,0,0,.64-.09,1.22,1.22,0,0,0,.46-.27,1,1,0,0,0,.27-.42,1.59,1.59,0,0,0,.09-.55,1.51,1.51,0,0,0-.09-.53,1.09,1.09,0,0,0-.27-.4,1.22,1.22,0,0,0-.45-.25,2.13,2.13,0,0,0-.65-.09h-1v2.6Z"/><path d="M361.08,128.45a3.83,3.83,0,0,1-.27,1.46,3.26,3.26,0,0,1-.74,1.14,3.41,3.41,0,0,1-1.16.75,4,4,0,0,1-1.5.26h-2.75v-7.23h2.75a4,4,0,0,1,1.5.27,3.41,3.41,0,0,1,1.16.75,3.17,3.17,0,0,1,.74,1.14A3.83,3.83,0,0,1,361.08,128.45Zm-1.38,0a3.54,3.54,0,0,0-.16-1.07,2.33,2.33,0,0,0-.46-.8,1.87,1.87,0,0,0-.72-.5,2.4,2.4,0,0,0-.95-.18H356V131h1.4a2.4,2.4,0,0,0,.95-.17,2,2,0,0,0,.72-.5,2.33,2.33,0,0,0,.46-.8A3.54,3.54,0,0,0,359.7,128.45Z"/><path d="M364.27,126.85a2.87,2.87,0,0,1,1,.19,2.31,2.31,0,0,1,.8.52,2.41,2.41,0,0,1,.51.83,3.21,3.21,0,0,1,.18,1.1,3.17,3.17,0,0,1-.18,1.1,2.32,2.32,0,0,1-.51.83,2.2,2.2,0,0,1-.8.53,2.94,2.94,0,0,1-2.08,0,2.24,2.24,0,0,1-.81-.53,2.32,2.32,0,0,1-.51-.83,3.17,3.17,0,0,1-.18-1.1,3.21,3.21,0,0,1,.18-1.1,2.41,2.41,0,0,1,.51-.83,2.35,2.35,0,0,1,.81-.52A2.87,2.87,0,0,1,364.27,126.85Zm0,4.34a1.08,1.08,0,0,0,1-.43,2.21,2.21,0,0,0,.31-1.26,2.24,2.24,0,0,0-.31-1.27,1.27,1.27,0,0,0-1.91,0,2.72,2.72,0,0,0,0,2.52A1.13,1.13,0,0,0,364.27,131.19Z"/><path d="M367.75,132.06v-5.13h.75a.31.31,0,0,1,.32.23l.08.38a3.7,3.7,0,0,1,.28-.28,2.11,2.11,0,0,1,.31-.21,1.78,1.78,0,0,1,.36-.14,1.44,1.44,0,0,1,.43-.06,1.15,1.15,0,0,1,.79.27.43.43,0,1,0,.77.26,1.45,1.45,0,0,1,.4-.3,1.74,1.74,0,0,1,.45-.17,2.12,2.12,0,0,1,.49-.06,2.2,2.2,0,0,1,.76.13,1.55,1.55,0,0,1,.55.38,1.58,1.58,0,0,1,.34.61,2.64,2.64,0,0,1,.12.83v3.26h-1.23V128.8a1.13,1.13,0,0,0-.22-.74.8.8,0,0,0-.63-.25,1,1,0,0,0-.35.07.77.77,0,0,0-.29.19.91.91,0,0,0-.19.3,1.43,1.43,0,0,0-.07.43v3.26h-1.24V128.8a1.12,1.12,0,0,0-.21-.75.74.74,0,0,0-.6-.24,1,1,0,0,0-.51.14,1.75,1.75,0,0,0-.43.36v3.75Z"/><path d="M376,127.65a3,3,0,0,1,2.13-.81,2.09,2.09,0,0,1,.81.15,1.65,1.65,0,0,1,.6.41,1.83,1.83,0,0,1,.37.62,2.58,2.58,0,0,1,.13.8v3.24h-.56a.5.5,0,0,1-.27-.05.29.29,0,0,1-.15-.21l-.11-.37a4.73,4.73,0,0,1-.38.31,3.84,3.84,0,0,1-.39.22,2.41,2.41,0,0,1-.43.14,2.6,2.6,0,0,1-.5,0,2.23,2.23,0,0,1-.6-.08,1.29,1.29,0,0,1-.47-.27,1,1,0,0,1-.31-.43,1.45,1.45,0,0,1-.11-.61,1.21,1.21,0,0,1,.06-.38A1.07,1.07,0,0,1,376,130a1.62,1.62,0,0,1,.39-.33,2.53,2.53,0,0,1,.57-.27,5,5,0,0,1,.8-.19,7.61,7.61,0,0,1,1-.09v-.3a1.11,1.11,0,0,0-.22-.76.83.83,0,0,0-.63-.25,1.72,1.72,0,0,0-.5.07,2.29,2.29,0,0,0-.35.16l-.27.16a.5.5,0,0,1-.27.07.32.32,0,0,1-.22-.07.57.57,0,0,1-.15-.16Zm2.83,2.22a6.3,6.3,0,0,0-.9.1,2.13,2.13,0,0,0-.58.17.77.77,0,0,0-.32.24.59.59,0,0,0-.09.31.51.51,0,0,0,.19.46.78.78,0,0,0,.5.14,1.53,1.53,0,0,0,.66-.13,2.2,2.2,0,0,0,.54-.42Z"/><path d="M382.65,125.44a.73.73,0,0,1-.07.3.81.81,0,0,1-.17.24.85.85,0,0,1-.25.17.83.83,0,0,1-.62,0,.87.87,0,0,1-.41-.41.73.73,0,0,1-.06-.3.81.81,0,0,1,.06-.31.74.74,0,0,1,.17-.25.81.81,0,0,1,.24-.17.83.83,0,0,1,.62,0,.85.85,0,0,1,.25.17.74.74,0,0,1,.17.25A.82.82,0,0,1,382.65,125.44Zm-.17,1.49v5.13h-1.24v-5.13Z"/><path d="M384.89,127.56a2.22,2.22,0,0,1,.33-.28,2,2,0,0,1,.36-.23,1.88,1.88,0,0,1,.42-.14,1.92,1.92,0,0,1,1.22.09,1.37,1.37,0,0,1,.54.4,1.57,1.57,0,0,1,.33.61,2.47,2.47,0,0,1,.12.79v3.26H387V128.8a1.13,1.13,0,0,0-.21-.73.84.84,0,0,0-.66-.26,1.27,1.27,0,0,0-.6.15,2.41,2.41,0,0,0-.53.39v3.71h-1.23v-5.13h.75a.31.31,0,0,1,.32.23Z"/><path d="M397.65,132.06h-1.22a.53.53,0,0,1-.5-.27l-1.52-2.31a.57.57,0,0,0-.19-.19.74.74,0,0,0-.3,0h-.57v2.82H392v-7.23h2.21a4.6,4.6,0,0,1,1.26.16,2.38,2.38,0,0,1,.86.42,1.76,1.76,0,0,1,.5.66,2.13,2.13,0,0,1,.16.84,1.92,1.92,0,0,1-.11.69,1.75,1.75,0,0,1-.31.59,1.88,1.88,0,0,1-.5.47,2.29,2.29,0,0,1-.67.31,1.88,1.88,0,0,1,.24.18,1.59,1.59,0,0,1,.2.24Zm-3.46-3.79a2.19,2.19,0,0,0,.66-.09,1.21,1.21,0,0,0,.46-.26,1,1,0,0,0,.28-.4,1.36,1.36,0,0,0,.09-.51,1,1,0,0,0-.37-.84,1.7,1.7,0,0,0-1.1-.3h-.86v2.4Z"/><path d="M398.85,129.65a2.54,2.54,0,0,0,.14.69,1.29,1.29,0,0,0,.29.47,1,1,0,0,0,.43.28,1.59,1.59,0,0,0,.55.09,1.53,1.53,0,0,0,.51-.07,1.5,1.5,0,0,0,.38-.15l.29-.16a.55.55,0,0,1,.24-.07.26.26,0,0,1,.23.12l.35.45a2.17,2.17,0,0,1-.46.4,2.37,2.37,0,0,1-.53.26,2.79,2.79,0,0,1-.57.14,3.48,3.48,0,0,1-.55,0,2.73,2.73,0,0,1-1-.18,2.35,2.35,0,0,1-.8-.52,2.5,2.5,0,0,1-.53-.86,3.37,3.37,0,0,1-.2-1.19,2.94,2.94,0,0,1,.17-1,2.24,2.24,0,0,1,.49-.8,2.4,2.4,0,0,1,.77-.55,2.64,2.64,0,0,1,1-.2,2.56,2.56,0,0,1,.89.16,2,2,0,0,1,.71.45,2.17,2.17,0,0,1,.46.73,2.78,2.78,0,0,1,.17,1,.82.82,0,0,1-.06.38.26.26,0,0,1-.23.09Zm2.36-.74a1.63,1.63,0,0,0-.07-.45,1.15,1.15,0,0,0-.2-.38,1,1,0,0,0-.35-.25,1.17,1.17,0,0,0-.48-.09,1.14,1.14,0,0,0-.84.3,1.47,1.47,0,0,0-.39.87Z"/><path d="M406.37,127.93a.42.42,0,0,1-.1.12.32.32,0,0,1-.14,0,.53.53,0,0,1-.2-.05l-.23-.11a2.23,2.23,0,0,0-.31-.12,1.64,1.64,0,0,0-.41,0,1,1,0,0,0-.57.16.48.48,0,0,0-.21.4.39.39,0,0,0,.11.28.88.88,0,0,0,.28.2,2.19,2.19,0,0,0,.41.15l.45.15a3.66,3.66,0,0,1,.46.18,1.62,1.62,0,0,1,.4.26,1.2,1.2,0,0,1,.29.38,1.22,1.22,0,0,1,.11.53,1.69,1.69,0,0,1-.14.68,1.39,1.39,0,0,1-.39.54,2,2,0,0,1-.64.36,3.33,3.33,0,0,1-1.4.08,3.94,3.94,0,0,1-.49-.14,2.39,2.39,0,0,1-.43-.2,1.76,1.76,0,0,1-.34-.25l.28-.47a.53.53,0,0,1,.13-.13.36.36,0,0,1,.19,0,.43.43,0,0,1,.22.06l.24.14a1.8,1.8,0,0,0,.31.14,1.29,1.29,0,0,0,.47.07,1.32,1.32,0,0,0,.37-.05.71.71,0,0,0,.26-.14.48.48,0,0,0,.15-.2.46.46,0,0,0,.05-.23.44.44,0,0,0-.11-.3,1.06,1.06,0,0,0-.28-.2l-.41-.15-.46-.15a3.8,3.8,0,0,1-.47-.18,1.6,1.6,0,0,1-.4-.28,1.33,1.33,0,0,1-.29-.4,1.44,1.44,0,0,1-.1-.58,1.53,1.53,0,0,1,.12-.6,1.39,1.39,0,0,1,.37-.5,1.92,1.92,0,0,1,.6-.34,2.69,2.69,0,0,1,.84-.13,2.54,2.54,0,0,1,1,.18,2.17,2.17,0,0,1,.72.46Z"/><path d="M409.91,126.85a2.82,2.82,0,0,1,1,.19,2.22,2.22,0,0,1,.8.52,2.29,2.29,0,0,1,.52.83,3.21,3.21,0,0,1,.18,1.1,3.17,3.17,0,0,1-.18,1.1,2.21,2.21,0,0,1-.52.83,2.12,2.12,0,0,1-.8.53,2.63,2.63,0,0,1-1,.19,2.73,2.73,0,0,1-1.05-.19,2.2,2.2,0,0,1-.8-.53,2.49,2.49,0,0,1-.52-.83,3.17,3.17,0,0,1-.18-1.1,3.21,3.21,0,0,1,.18-1.1,2.6,2.6,0,0,1,.52-.83,2.31,2.31,0,0,1,.8-.52A2.93,2.93,0,0,1,409.91,126.85Zm0,4.34a1.07,1.07,0,0,0,.94-.43,2.13,2.13,0,0,0,.31-1.26,2.17,2.17,0,0,0-.31-1.27,1.07,1.07,0,0,0-.94-.43,1.09,1.09,0,0,0-1,.44,2.72,2.72,0,0,0,0,2.52A1.14,1.14,0,0,0,409.91,131.19Z"/><path d="M414.63,124.63v7.43H413.4v-7.43Z"/><path d="M420.49,126.93l-2,5.13h-1.12l-2-5.13h1a.42.42,0,0,1,.23.07.28.28,0,0,1,.13.16l1,2.74c.05.16.1.32.14.47s.07.31.1.46c0-.15.07-.3.11-.46s.09-.31.15-.47l1-2.74a.31.31,0,0,1,.12-.16.38.38,0,0,1,.22-.07Z"/><path d="M421.94,129.65a2.21,2.21,0,0,0,.14.69,1.29,1.29,0,0,0,.29.47,1.07,1.07,0,0,0,.42.28,1.83,1.83,0,0,0,1.07,0,1.88,1.88,0,0,0,.38-.15l.28-.16a.59.59,0,0,1,.24-.07.26.26,0,0,1,.23.12l.36.45a2.17,2.17,0,0,1-.46.4,2.24,2.24,0,0,1-.54.26,2.7,2.7,0,0,1-.56.14,3.6,3.6,0,0,1-.56,0,2.64,2.64,0,0,1-1-.18,2.17,2.17,0,0,1-.8-.52,2.52,2.52,0,0,1-.54-.86,3.38,3.38,0,0,1-.19-1.19,2.71,2.71,0,0,1,.17-1,2.22,2.22,0,0,1,.48-.8,2.44,2.44,0,0,1,.78-.55,2.59,2.59,0,0,1,1-.2,2.66,2.66,0,0,1,.9.16,1.92,1.92,0,0,1,.7.45,2,2,0,0,1,.46.73,2.57,2.57,0,0,1,.17,1,.82.82,0,0,1-.06.38.26.26,0,0,1-.23.09Zm2.35-.74a1.33,1.33,0,0,0-.07-.45,1,1,0,0,0-.2-.38,1,1,0,0,0-.34-.25,1.21,1.21,0,0,0-.48-.09,1.18,1.18,0,0,0-.85.3,1.6,1.6,0,0,0-.39.87Z"/><path d="M427.49,127.82a2.33,2.33,0,0,1,.57-.72,1.24,1.24,0,0,1,.78-.26,1,1,0,0,1,.57.15l-.08.93a.32.32,0,0,1-.07.13.25.25,0,0,1-.13,0,1,1,0,0,1-.22,0l-.29,0a1,1,0,0,0-.36.06.79.79,0,0,0-.29.18,1,1,0,0,0-.23.27l-.18.36v3.16h-1.23v-5.13h.72a.44.44,0,0,1,.27.07.45.45,0,0,1,.1.24Z"/><rect class="cls-10" x="155.82" y="46.21" width="160.01" height="4.62"/><polygon class="cls-10" points="330.22 48.67 313.35 40.4 313.35 56.93 330.22 48.67"/><ellipse class="cls-11" cx="236.82" cy="48.84" rx="50.74" ry="17.05"/><text class="cls-12" transform="translate(196.85 50.35)">www.wikipedia.org = ?</text><rect class="cls-10" x="168.93" y="93.57" width="160.01" height="4.62" transform="translate(497.88 191.76) rotate(180)"/><polygon class="cls-10" points="154.54 95.73 171.41 104 171.41 87.47 154.54 95.73"/><ellipse class="cls-11" cx="237.21" cy="95.78" rx="45.73" ry="14.2"/><text class="cls-13" transform="translate(209.76 98.32)">91.198.174.192</text><path d="M85.32,35.79a.65.65,0,0,1-.14.4.38.38,0,0,1-.3.18,3.8,3.8,0,0,0-2.18.86A8,8,0,0,0,81,40L71.74,60.76c-.06.19-.23.29-.51.29a.57.57,0,0,1-.5-.29L65.56,50l-5.93,10.8a.57.57,0,0,1-.51.29.51.51,0,0,1-.52-.29L49.55,40a7.1,7.1,0,0,0-1.79-2.7,4.88,4.88,0,0,0-2.61-1,.34.34,0,0,1-.27-.15.51.51,0,0,1-.13-.35c0-.34.09-.51.29-.51.8,0,1.65,0,2.53.11s1.58.11,2.31.11,1.6,0,2.6-.11,2-.11,2.78-.11c.19,0,.28.17.28.51s-.06.5-.17.5a3.66,3.66,0,0,0-1.91.61,1.65,1.65,0,0,0-.69,1.38,2.78,2.78,0,0,0,.28,1.08l7.48,16.88,4.24-8L60.82,40a10.76,10.76,0,0,0-1.75-2.86A3.52,3.52,0,0,0,57,36.37a.31.31,0,0,1-.24-.15.55.55,0,0,1-.12-.35c0-.34.08-.51.25-.51a21.4,21.4,0,0,1,2.22.11,19.37,19.37,0,0,0,2.08.11c.72,0,1.48,0,2.29-.11s1.65-.11,2.45-.11c.2,0,.29.17.29.51s0,.5-.18.5c-1.61.11-2.41.57-2.41,1.37a4.22,4.22,0,0,0,.56,1.68l2.61,5.31,2.6-4.86a3.89,3.89,0,0,0,.54-1.73c0-1.11-.8-1.69-2.41-1.77-.15,0-.22-.17-.22-.5a.59.59,0,0,1,.1-.34c.08-.12.15-.17.22-.17.58,0,1.29,0,2.13.11s1.47.11,2,.11.92,0,1.64-.09c.91-.09,1.68-.13,2.3-.13.14,0,.21.14.21.43s-.13.58-.4.58a4.59,4.59,0,0,0-2.26.78A9.9,9.9,0,0,0,71.09,40l-3.47,6.41L72.32,56l6.93-16.12a4.3,4.3,0,0,0,.36-1.62c0-1.18-.81-1.8-2.42-1.88-.14,0-.22-.17-.22-.5s.11-.51.33-.51c.59,0,1.29,0,2.09.11s1.38.11,1.88.11,1.15,0,1.84-.11,1.37-.11,2-.11C85.23,35.36,85.32,35.5,85.32,35.79Z"/></svg>