<svg id="Layer_1" data-name="Layer 1" xmlns="http://www.w3.org/2000/svg" viewBox="0 0 430.26 99.59"><defs><style>.cls-1,.cls-3{fill:#14bf96;}.cls-2{fill:#fff;}.cls-3{stroke:#ffd633;stroke-linecap:round;stroke-miterlimit:10;stroke-width:2.19px;}.cls-4{fill:#37c5fd;}.cls-5{fill:#0a2a66;}.cls-6{fill:#ccfbf0;}.cls-7{font-size:13px;font-family:Monaco, Monaco;}</style></defs><title>fiber</title><rect class="cls-1" x="89.98" y="42.7" width="250.75" height="20.9"/><rect class="cls-2" x="89.98" y="46.27" width="250.75" height="13.2"/><line class="cls-3" x1="90.96" y1="47.42" x2="106.26" y2="58.34"/><line class="cls-3" x1="121.72" y1="47.42" x2="106.42" y2="58.34"/><line class="cls-3" x1="122.27" y1="47.41" x2="137.58" y2="58.33"/><line class="cls-3" x1="153.04" y1="47.41" x2="137.73" y2="58.33"/><line class="cls-3" x1="153.12" y1="47.42" x2="168.43" y2="58.35"/><line class="cls-3" x1="183.89" y1="47.42" x2="168.58" y2="58.35"/><line class="cls-3" x1="184.43" y1="47.41" x2="199.74" y2="58.34"/><line class="cls-3" x1="215.2" y1="47.41" x2="199.89" y2="58.34"/><line class="cls-3" x1="215.66" y1="47.14" x2="230.97" y2="58.06"/><line class="cls-3" x1="246.43" y1="47.14" x2="231.12" y2="58.06"/><line class="cls-3" x1="246.97" y1="47.13" x2="262.28" y2="58.05"/><line class="cls-3" x1="277.74" y1="47.13" x2="262.43" y2="58.05"/><line class="cls-3" x1="277.82" y1="47.14" x2="293.13" y2="58.06"/><line class="cls-3" x1="308.59" y1="47.14" x2="293.28" y2="58.06"/><line class="cls-3" x1="309.14" y1="47.13" x2="324.45" y2="58.06"/><line class="cls-3" x1="339.91" y1="47.13" x2="324.6" y2="58.06"/><rect class="cls-4" y="0.38" width="78.22" height="99.21" rx="2.06" ry="2.06"/><rect class="cls-5" x="4.21" y="19.03" width="69.2" height="6.02"/><rect class="cls-5" x="4.21" y="31.82" width="69.2" height="6.02"/><rect class="cls-5" x="4.81" y="44.61" width="69.2" height="6.02"/><rect class="cls-5" x="4.81" y="57.39" width="69.2" height="6.02"/><rect class="cls-5" x="4.81" y="70.18" width="69.2" height="6.02"/><circle class="cls-6" cx="68.6" cy="8.8" r="3.61"/><rect class="cls-5" x="4.81" y="82.97" width="69.2" height="6.02"/><rect class="cls-4" x="352.04" width="78.22" height="99.21" rx="2.06" ry="2.06"/><rect class="cls-5" x="356.25" y="18.65" width="69.2" height="6.02"/><rect class="cls-5" x="356.25" y="31.44" width="69.2" height="6.02"/><rect class="cls-5" x="356.85" y="44.23" width="69.2" height="6.02"/><rect class="cls-5" x="356.85" y="57.01" width="69.2" height="6.02"/><rect class="cls-5" x="356.85" y="69.8" width="69.2" height="6.02"/><circle class="cls-6" cx="420.64" cy="8.42" r="3.61"/><rect class="cls-5" x="356.85" y="82.59" width="69.2" height="6.02"/><text class="cls-7" transform="translate(120.6 34.45)">1 0 0 1 1 0 1 1 0 1 1 0</text></svg>