<svg id="Layer_1" data-name="Layer 1" xmlns="http://www.w3.org/2000/svg" width="528.04" height="220.5" viewBox="0 0 528.04 220.5"><defs><style>.cls-1{fill:#37c5fd;}.cls-2{fill:none;stroke:#14bf96;stroke-linecap:round;stroke-miterlimit:10;stroke-width:2px;}</style></defs><title>network topologies</title><rect class="cls-1" x="104.04" y="195.16" width="25.34" height="25.34" rx="6.51"/><rect class="cls-1" x="143.34" y="195.16" width="25.34" height="25.34" rx="6.51"/><rect class="cls-1" x="184.33" y="195.16" width="25.34" height="25.34" rx="6.51"/><line class="cls-2" x1="215.45" y1="184.26" x2="105.7" y2="184.26"/><line class="cls-2" x1="126.71" y1="183.34" x2="126.71" y2="172.63"/><line class="cls-2" x1="166.01" y1="183.27" x2="166.01" y2="172.56"/><line class="cls-2" x1="207" y1="182.91" x2="207" y2="172.21"/><rect class="cls-1" x="114.04" y="147.21" width="25.34" height="25.34" rx="6.51"/><rect class="cls-1" x="153.34" y="147.21" width="25.34" height="25.34" rx="6.51"/><rect class="cls-1" x="194.33" y="147.21" width="25.34" height="25.34" rx="6.51"/><line class="cls-2" x1="116.71" y1="195.57" x2="116.71" y2="184.86"/><line class="cls-2" x1="156.01" y1="195.5" x2="156.01" y2="184.8"/><line class="cls-2" x1="197" y1="195.15" x2="197" y2="184.44"/><line class="cls-2" x1="497.14" y1="22.36" x2="472.28" y2="43.11"/><line class="cls-2" x1="432.1" y1="22.36" x2="456.95" y2="43.11"/><line class="cls-2" x1="505.87" y1="65.84" x2="471.04" y2="52.22"/><line class="cls-2" x1="463.88" y1="93.55" x2="463.88" y2="63.9"/><line class="cls-2" x1="420" y1="65.84" x2="454.84" y2="52.22"/><rect class="cls-1" x="451.94" y="38.84" width="25.34" height="25.34" rx="6.51"/><rect class="cls-1" x="414.31" width="25.34" height="25.34" rx="6.51"/><rect class="cls-1" x="489.58" width="25.34" height="25.34" rx="6.51"/><rect class="cls-1" x="401.03" y="54.7" width="25.34" height="25.34" rx="6.51"/><rect class="cls-1" x="451.94" y="90.68" width="25.34" height="25.34" rx="6.51"/><rect class="cls-1" x="502.7" y="54.7" width="25.34" height="25.34" rx="6.51"/><polygon class="cls-2" points="87.46 17.17 37.46 17.17 12.46 60.47 37.46 103.77 87.46 103.77 112.46 60.47 87.46 17.17"/><rect class="cls-1" x="25.83" y="5.21" width="25.34" height="25.34" rx="6.51"/><rect class="cls-1" x="74.46" y="5.21" width="25.34" height="25.34" rx="6.51"/><rect class="cls-1" x="99.23" y="48.42" width="25.34" height="25.34" rx="6.51"/><rect class="cls-1" x="74.46" y="90.68" width="25.34" height="25.34" rx="6.51"/><rect class="cls-1" x="25.83" y="90.68" width="25.34" height="25.34" rx="6.51"/><rect class="cls-1" y="48.42" width="25.34" height="25.34" rx="6.51"/><line class="cls-2" x1="214.17" y1="60.47" x2="313.89" y2="60.47"/><line class="cls-2" x1="238.9" y1="103.36" x2="288.91" y2="18.37"/><line class="cls-2" x1="288.91" y1="103.36" x2="238.9" y2="18.37"/><polygon class="cls-2" points="287.98 17.17 237.98 17.17 212.98 60.47 237.98 103.77 287.98 103.77 312.98 60.47 287.98 17.17"/><line class="cls-2" x1="238.7" y1="104.09" x2="237.74" y2="16.73"/><line class="cls-2" x1="311.28" y1="62.78" x2="238.91" y2="15.78"/><line class="cls-2" x1="290.76" y1="104.93" x2="215.61" y2="60.99"/><rect class="cls-1" x="226.34" y="5.21" width="25.34" height="25.34" rx="6.51"/><line class="cls-2" x1="290.49" y1="104.76" x2="289.53" y2="17.39"/><rect class="cls-1" x="274.98" y="90.68" width="25.34" height="25.34" rx="6.51"/><line class="cls-2" x1="213.32" y1="61.84" x2="289.51" y2="15.75"/><rect class="cls-1" x="200.52" y="48.42" width="25.34" height="25.34" rx="6.51"/><rect class="cls-1" x="274.98" y="5.21" width="25.34" height="25.34" rx="6.51"/><line class="cls-2" x1="239.64" y1="104.09" x2="312.81" y2="61.71"/><rect class="cls-1" x="299.74" y="48.42" width="25.34" height="25.34" rx="6.51"/><rect class="cls-1" x="226.34" y="90.68" width="25.34" height="25.34" rx="6.51"/><line class="cls-2" x1="405.35" y1="156.74" x2="380.49" y2="136"/><line class="cls-2" x1="340.3" y1="156.74" x2="365.16" y2="136"/><rect class="cls-1" x="359.87" y="114.36" width="25.34" height="25.34" rx="6.51"/><line class="cls-2" x1="313.59" y1="198.15" x2="338.45" y2="177.4"/><line class="cls-2" x1="362.05" y1="198.15" x2="337.19" y2="177.4"/><line class="cls-2" x1="432.34" y1="198.15" x2="407.49" y2="177.4"/><rect class="cls-1" x="326.15" y="155.87" width="25.34" height="25.34" rx="6.51"/><rect class="cls-1" x="394.22" y="155.87" width="25.34" height="25.34" rx="6.51"/><rect class="cls-1" x="302.99" y="195.16" width="25.34" height="25.34" rx="6.51"/><rect class="cls-1" x="350.46" y="195.16" width="25.34" height="25.34" rx="6.51"/><rect class="cls-1" x="420.75" y="195.16" width="25.34" height="25.34" rx="6.51"/></svg>