<svg xmlns="http://www.w3.org/2000/svg" width="454.767" height="225" viewBox="0 0 454.76744186046517 225"><defs><clipPath id="a"><path d="M0 25h400v200H0z"/></clipPath></defs><path fill="none" stroke="#000" d="M9.302 225V25M27.907 225V25M46.512 225V25M65.116 225V25M83.72 225V25M102.326 225V25M120.93 225V25M139.535 225V25M158.14 225V25M176.744 225V25M195.349 225V25M213.953 225V25M232.558 225V25M251.163 225V25M269.767 225V25M288.372 225V25M306.977 225V25M325.581 225V25M344.186 225V25M362.791 225V25M381.395 225V25M400 225V25M0 225h400M0 196.429h400M0 167.857h400M0 139.286h400M0 110.714h400M0 82.143h400M0 53.571h400M0 25h400" stroke-width="2" opacity=".1"/><path fill="none" stroke="#000" d="M7.05 190.828c-.35 2.1-4.2 5.25-5.25 5.6 1.05.35 4.9 3.5 5.25 5.6" stroke-width="2" stroke-linejoin="round" stroke-linecap="round"/><path fill="none" stroke="#000" d="M27.907 196.429H1.05" stroke-width="2"/><path fill="none" stroke="#000" d="M394.45 202.029c.35-2.1 4.2-5.25 5.25-5.6-1.05-.35-4.9-3.5-5.25-5.6" stroke-width="2" stroke-linejoin="round" stroke-linecap="round"/><path fill="none" stroke="#000" d="M27.907 196.429H398.95" stroke-width="2"/><path fill="none" stroke="#000" d="M23.057 218.7c2.1.35 5.25 4.2 5.6 5.25.35-1.05 3.5-4.9 5.6-5.25" stroke-width="2" stroke-linejoin="round" stroke-linecap="round"/><path fill="none" stroke="#000" d="M27.907 196.429v27.521" stroke-width="2"/><path fill="none" stroke="#000" d="M34.257 31.3c-2.1-.35-5.25-4.2-5.6-5.25-.35 1.05-3.5 4.9-5.6 5.25" stroke-width="2" stroke-linejoin="round" stroke-linecap="round"/><path fill="none" stroke="#000" d="M27.907 196.429V26.05" stroke-width="2"/><path fill="none" stroke="#000" d="M65.116 201.429v-10M102.326 201.429v-10M139.535 201.429v-10M176.744 201.429v-10M213.953 201.429v-10M251.163 201.429v-10M288.372 201.429v-10M325.581 201.429v-10M362.791 201.429v-10M22.907 167.857h10M22.907 139.286h10M22.907 110.714h10M22.907 82.143h10M22.907 53.571h10"/><path fill="none" stroke="#e84d39" d="M27.907 190.714l.5-.364.5-.389.5-.412.5-.44.5-.467.5-.497.5-.529.5-.562.5-.599.5-.636.5-.678.5-.72.5-.767.5-.815.5-.868.5-.923.5-.981.5-1.045.5-1.111.5-1.182.5-1.258.5-1.338.5-1.423.5-1.514.5-1.611.5-1.713.5-1.823.5-1.94.5-2.063.5-2.195.5-2.335.5-2.484.5-2.642.5-2.812.5-2.99.5-3.182.5-3.385.5-3.601.5-3.831.5-4.075.5-4.335.5-4.612.5-4.907.5-5.22.5-5.553.5-5.908.5-6.284.5-6.686.5-7.113.5-7.567.5-8.05.5-8.563.5-9.11.5-9.692.5-10.31.5-10.97.5-11.668.5-12.414.5-13.207.5-14.05.5-14.945.5-15.9.5-16.916.5-17.995.5-19.144.5-20.367.5-21.666.5-23.049.5-24.521.5-26.086.5-27.751.5-29.523.5-31.407.5-33.413.5-35.545.5-37.815.5-40.228.5-42.796.5-45.529.5-48.435.5-51.527.5-54.816.5-58.315.5-62.038.5-65.998.5-70.212.5-74.698.5-79.46.5-84.53.5-89.93.5-95.67.5-101.78.5-108.28.5-115.19.5-122.54.5-130.36.5-138.69.5-147.54.5-156.96.5-166.97.5-177.64.5-188.98.5-201.04.5-213.87.5-227.53.5-242.05.5-257.5.5-273.94.5-291.43.5-310.04.5-329.82.5-350.88.5-373.28.5-397.11.5-422.45.5-449.43.5-478.11.5-508.64.5-541.11.5-575.65.5-612.36.5-651.5.5-693.1.5-737.3.5-784.4.5-834.5.5-887.7.5-944.4.5-1004.7.5-1068.8.5-1137.1.5-1209.6.5-1286.9.5-1369 .5-1456.4.5-1549.4.5-1648.3.5-1753.5.5-1865.5.5-1984.5.5-2111.2.5-2246 .5-2389.4.5-2541.9.5-2704.1.5-2876.8.5-3060.4.5-3255.8.5-3463.7.5-3684.7.5-3920 .5-4170.2.5-4436.4.5-4719.7.5-5020.9.5-5341.4.5-5682.4.5-6045.3.5-6431 .5-6842 .5-7278 .5-7743 .5-8237 .5-8763 .5-9323 .5-9917 .5-10551 .5-11224 .5-11941 .5-12703 .5-13514 .5-14377 .5-15294 .5-16271 .5-17309 .5-18415 .5-19590 .5-20840 .5-22171 .5-23586 .5-25092 .5-26694 .5-28398 .5-30210 .5-32139 .5-34191 .5-36373 .5-38695 .5-41166 .5-43793 .5-46589 .5-49563 .5-52727 .5-56093 .5-59674" stroke-width="2" clip-path="url(#a)"/><path fill="none" stroke="#ca337c" d="M27.907 196.429l.5-.005.5-.012.5-.021.5-.028.5-.038.5-.045.5-.054.5-.062.5-.07.5-.078.5-.087.5-.095.5-.103.5-.111.5-.12.5-.128.5-.136.5-.145.5-.152.5-.161.5-.17.5-.177.5-.186.5-.194.5-.202.5-.21.5-.219.5-.227.5-.235.5-.244.5-.252.5-.26.5-.268.5-.277.5-.284.5-.293.5-.302.5-.309.5-.318.5-.326.5-.334.5-.343.5-.351.5-.359.5-.367.5-.376.5-.383.5-.393.5-.4.5-.409.5-.416.5-.425.5-.434.5-.441.5-.45.5-.458.5-.467.5-.474.5-.483.5-.491.5-.5.5-.508.5-.515.5-.525.5-.532.5-.541.5-.549.5-.557.5-.565.5-.574.5-.582.5-.59.5-.598.5-.607.5-.615.5-.623.5-.632.5-.64.5-.647.5-.657.5-.664.5-.673.5-.681.5-.689.5-.698.5-.705.5-.714.5-.723.5-.73.5-.739.5-.747.5-.755.5-.764.5-.772.5-.78.5-.788.5-.797.5-.804.5-.813.5-.822.5-.829.5-.838.5-.846.5-.855.5-.862.5-.871.5-.879.5-.887.5-.896.5-.904.5-.912.5-.92.5-.929.5-.937.5-.945.5-.953.5-.962.5-.97.5-.978.5-.987.5-.994.5-1.003.5-1.011.5-1.02.5-1.027.5-1.036.5-1.045.5-1.052.5-1.061.5-1.069.5-1.077.5-1.085.5-1.094.5-1.102.5-1.11.5-1.119.5-1.126.5-1.135.5-1.144.5-1.151.5-1.16.5-1.168.5-1.176.5-1.185.5-1.192.5-1.202.5-1.209.5-1.217.5-1.226.5-1.234.5-1.242.5-1.251.5-1.259.5-1.267.5-1.275.5-1.284.5-1.292.5-1.3.5-1.308.5-1.317.5-1.324.5-1.334.5-1.34.5-1.35.5-1.358.5-1.366.5-1.375.5-1.382.5-1.391.5-1.4.5-1.407.5-1.415.5-1.424.5-1.433.5-1.44.5-1.449.5-1.457.5-1.465.5-1.473.5-1.482.5-1.49.5-1.498.5-1.506.5-1.515.5-1.523.5-1.531.5-1.54.5-1.547.5-1.556.5-1.565.5-1.572.5-1.58.5-1.59.5-1.597.5-1.605.5-1.614.5-1.622.5-1.63.5-1.639.5-1.647.5-1.655.5-1.663.5-1.672.5-1.68.5-1.687.5-1.697.5-1.704.5-1.713.5-1.721.5-1.73.5-1.737.5-1.746.5-1.754.5-1.762.5-1.77.5-1.78.5-1.787.5-1.795.5-1.804.5-1.811.5-1.82.5-1.829.5-1.837.5-1.844.5-1.854.5-1.86.5-1.87.5-1.879.5-1.886.5-1.894.5-1.903.5-1.91.5-1.92.5-1.927.5-1.936.5-1.944.5-1.952.5-1.96.5-1.97.5-1.976.5-1.985.5-1.994.5-2.001.5-2.01.5-2.019.5-2.026.5-2.035.5-2.043.5-2.05.5-2.06.5-2.068.5-2.076.5-2.084.5-2.093.5-2.1.5-2.11.5-2.117.5-2.125.5-2.134.5-2.142.5-2.15.5-2.16.5-2.166.5-2.175.5-2.183.5-2.192.5-2.2.5-2.208.5-2.216.5-2.225.5-2.232.5-2.242.5-2.249.5-2.258.5-2.265.5-2.274.5-2.283.5-2.29.5-2.299.5-2.307.5-2.316.5-2.323.5-2.332.5-2.34.5-2.349.5-2.357.5-2.364.5-2.374.5-2.381.5-2.39.5-2.398.5-2.406.5-2.414.5-2.423.5-2.431.5-2.439.5-2.447.5-2.456.5-2.464.5-2.472.5-2.481.5-2.489.5-2.496.5-2.506.5-2.513.5-2.522.5-2.53.5-2.538.5-2.547.5-2.554.5-2.563.5-2.572.5-2.579.5-2.588.5-2.596.5-2.604.5-2.613.5-2.621.5-2.629.5-2.637.5-2.646.5-2.653.5-2.662.5-2.671.5-2.678.5-2.687.5-2.695.5-2.704.5-2.711.5-2.72.5-2.728.5-2.736.5-2.745.5-2.753.5-2.761.5-2.769.5-2.778.5-2.786.5-2.794.5-2.802.5-2.811.5-2.819.5-2.827.5-2.836.5-2.843.5-2.852.5-2.86.5-2.869.5-2.876.5-2.885.5-2.894.5-2.901.5-2.91.5-2.918.5-2.926.5-2.934.5-2.943.5-2.951.5-2.959.5-2.968.5-2.975.5-2.984.5-2.993.5-3 .5-3.009.5-3.017.5-3.025.5-3.034.5-3.041.5-3.051.5-3.058.5-3.066.5-3.075.5-3.083.5-3.091.5-3.1.5-3.108.5-3.116.5-3.124.5-3.133.5-3.141.5-3.149.5-3.157.5-3.166.5-3.173.5-3.183.5-3.19.5-3.198.5-3.207.5-3.215.5-3.224.5-3.231.5-3.24.5-3.248.5-3.257.5-3.264.5-3.273.5-3.282.5-3.289.5-3.298.5-3.305.5-3.315.5-3.322.5-3.331.5-3.339.5-3.347.5-3.355.5-3.364.5-3.372.5-3.38.5-3.389.5-3.396.5-3.405.5-3.414.5-3.421.5-3.43.5-3.438.5-3.446.5-3.454.5-3.463.5-3.471.5-3.479.5-3.488.5-3.496.5-3.504.5-3.512.5-3.521.5-3.528.5-3.537.5-3.546.5-3.553.5-3.562.5-3.57.5-3.578.5-3.587.5-3.595.5-3.603.5-3.611.5-3.62.5-3.628.5-3.636.5-3.644.5-3.653.5-3.66.5-3.67.5-3.677.5-3.686.5-3.693.5-3.703.5-3.71.5-3.719.5-3.726.5-3.736.5-3.743.5-3.752.5-3.76.5-3.768.5-3.776.5-3.785.5-3.793.5-3.801.5-3.809.5-3.818.5-3.826.5-3.834.5-3.843.5-3.85.5-3.859.5-3.868.5-3.875.5-3.884.5-3.892.5-3.9.5-3.908.5-3.917.5-3.925.5-3.933.5-3.942.5-3.95.5-3.958.5-3.966.5-3.975.5-3.982.5-3.991.5-4 .5-4.007.5-4.016.5-4.024.5-4.032.5-4.041.5-4.049.5-4.057.5-4.065.5-4.074.5-4.081.5-4.091.5-4.098.5-4.107.5-4.114.5-4.123.5-4.132.5-4.139.5-4.148.5-4.156.5-4.165.5-4.172.5-4.181.5-4.189.5-4.198.5-4.206.5-4.213.5-4.223.5-4.23.5-4.239.5-4.247.5-4.255.5-4.263.5-4.272.5-4.28.5-4.288.5-4.296.5-4.305.5-4.313.5-4.321.5-4.33.5-4.338.5-4.345.5-4.355.5-4.362.5-4.371.5-4.379.5-4.387.5-4.396.5-4.403.5-4.412.5-4.421.5-4.428.5-4.437.5-4.446.5-4.45.5-4.46.5-4.47.5-4.48.5-4.49.5-4.49.5-4.51.5-4.51.5-4.52.5-4.52.5-4.54.5-4.54.5-4.56.5-4.56.5-4.57.5-4.57.5-4.59.5-4.59.5-4.6.5-4.61.5-4.62.5-4.63.5-4.63.5-4.65.5-4.65.5-4.66.5-4.67.5-4.67.5-4.69.5-4.69.5-4.7.5-4.71.5-4.72.5-4.72.5-4.74.5-4.74.5-4.75.5-4.76.5-4.76.5-4.78.5-4.78.5-4.79.5-4.8.5-4.81.5-4.82.5-4.82.5-4.84.5-4.84.5-4.85.5-4.85.5-4.87.5-4.88.5-4.88.5-4.89.5-4.9.5-4.9.5-4.92.5-4.92.5-4.94.5-4.94.5-4.95.5-4.95.5-4.97.5-4.97.5-4.98.5-4.99.5-5 .5-5.01.5-5.01.5-5.02.5-5.03.5-5.04.5-5.05.5-5.06.5-5.06.5-5.07.5-5.08.5-5.09.5-5.1.5-5.11.5-5.11.5-5.12.5-5.13.5-5.14.5-5.15.5-5.15.5-5.16.5-5.18.5-5.18.5-5.18.5-5.2.5-5.2.5-5.22.5-5.22.5-5.23.5-5.23.5-5.25.5-5.25.5-5.27.5-5.27.5-5.28.5-5.28.5-5.3.5-5.3.5-5.31.5-5.32.5-5.33.5-5.34.5-5.34.5-5.36.5-5.36.5-5.37.5-5.37.5-5.39.5-5.39.5-5.41.5-5.41.5-5.42.5-5.42.5-5.44.5-5.44.5-5.46.5-5.46.5-5.46.5-5.48.5-5.49.5-5.49.5-5.5.5-5.51.5-5.52.5-5.53.5-5.53.5-5.54.5-5.55.5-5.56.5-5.57.5-5.58.5-5.58.5-5.59.5-5.6.5-5.61.5-5.62.5-5.63.5-5.63.5-5.64.5-5.65.5-5.66.5-5.67.5-5.67.5-5.69.5-5.69.5-5.7.5-5.7.5-5.72.5-5.73.5-5.73.5-5.74.5-5.75.5-5.76.5-5.76.5-5.78.5-5.78.5-5.79.5-5.8.5-5.8.5-5.82.5-5.82.5-5.83.5-5.84.5-5.85.5-5.86.5-5.86.5-5.88.5-5.88.5-5.89.5-5.9.5-5.9.5-5.92.5-5.92.5-5.93.5-5.94.5-5.95.5-5.95.5-5.97.5-5.97.5-5.98.5-5.99.5-5.99.5-6.01.5-6.01.5-6.02.5-6.03.5-6.04.5-6.05.5-6.05.5-6.07.5-6.07.5-6.08.5-6.08.5-6.1.5-6.1.5-6.12.5-6.12.5-6.13.5-6.13" stroke-width="2" clip-path="url(#a)"/><path fill="none" stroke="#7854ab" d="M27.907 196.429l.5-.154.5-.154.5-.153.5-.154.5-.153.5-.154.5-.153.5-.154.5-.154.5-.153.5-.154.5-.153.5-.154.5-.153.5-.154.5-.154.5-.153.5-.154.5-.153.5-.154.5-.153.5-.154.5-.154.5-.153.5-.154.5-.153.5-.154.5-.153.5-.154.5-.154.5-.153.5-.154.5-.153.5-.154.5-.153.5-.154.5-.154.5-.153.5-.154.5-.153.5-.154.5-.153.5-.154.5-.154.5-.153.5-.154.5-.153.5-.154.5-.153.5-.154.5-.154.5-.153.5-.154.5-.153.5-.154.5-.153.5-.154.5-.154.5-.153.5-.154.5-.153.5-.154.5-.153.5-.154.5-.154.5-.153.5-.154.5-.153.5-.154.5-.153.5-.154.5-.154.5-.153.5-.154.5-.153.5-.154.5-.153.5-.154.5-.154.5-.153.5-.154.5-.153.5-.154.5-.153.5-.154.5-.154.5-.153.5-.154.5-.153.5-.154.5-.153.5-.154.5-.154.5-.153.5-.154.5-.153.5-.154.5-.153.5-.154.5-.154.5-.153.5-.154.5-.153.5-.154.5-.153.5-.154.5-.154.5-.153.5-.154.5-.153.5-.154.5-.153.5-.154.5-.154.5-.153.5-.154.5-.153.5-.154.5-.153.5-.154.5-.154.5-.153.5-.154.5-.153.5-.154.5-.153.5-.154.5-.154.5-.153.5-.154.5-.153.5-.154.5-.153.5-.154.5-.154.5-.153.5-.154.5-.153.5-.154.5-.153.5-.154.5-.154.5-.153.5-.154.5-.153.5-.154.5-.153.5-.154.5-.154.5-.153.5-.154.5-.153.5-.154.5-.153.5-.154.5-.154.5-.153.5-.154.5-.153.5-.154.5-.153.5-.154.5-.154.5-.153.5-.154.5-.153.5-.154.5-.153.5-.154.5-.154.5-.153.5-.154.5-.153.5-.154.5-.153.5-.154.5-.154.5-.153.5-.154.5-.153.5-.154.5-.153.5-.154.5-.154.5-.153.5-.154.5-.153.5-.154.5-.153.5-.154.5-.154.5-.153.5-.154.5-.153.5-.154.5-.153.5-.154.5-.154.5-.153.5-.154.5-.153.5-.154.5-.153.5-.154.5-.154.5-.153.5-.154.5-.153.5-.154.5-.153.5-.154.5-.154.5-.153.5-.154.5-.153.5-.154.5-.153.5-.154.5-.154.5-.153.5-.154.5-.153.5-.154.5-.153.5-.154.5-.154.5-.153.5-.154.5-.153.5-.154.5-.153.5-.154.5-.154.5-.153.5-.154.5-.153.5-.154.5-.153.5-.154.5-.154.5-.153.5-.154.5-.153.5-.154.5-.153.5-.154.5-.154.5-.153.5-.154.5-.153.5-.154.5-.153.5-.154.5-.154.5-.153.5-.154.5-.153.5-.154.5-.153.5-.154.5-.154.5-.153.5-.154.5-.153.5-.154.5-.153.5-.154.5-.154.5-.153.5-.154.5-.153.5-.154.5-.153.5-.154.5-.154.5-.153.5-.154.5-.153.5-.154.5-.153.5-.154.5-.154.5-.153.5-.154.5-.153.5-.154.5-.153.5-.154.5-.154.5-.153.5-.154.5-.153.5-.154.5-.153.5-.154.5-.154.5-.153.5-.154.5-.153.5-.154.5-.153.5-.154.5-.154.5-.153.5-.154.5-.153.5-.154.5-.153.5-.154.5-.154.5-.153.5-.154.5-.153.5-.154.5-.153.5-.154.5-.154.5-.153.5-.154.5-.153.5-.154.5-.153.5-.154.5-.154.5-.153.5-.154.5-.153.5-.154.5-.153.5-.154.5-.154.5-.153.5-.154.5-.153.5-.154.5-.153.5-.154.5-.154.5-.153.5-.154.5-.153.5-.154.5-.153.5-.154.5-.154.5-.153.5-.154.5-.153.5-.154.5-.153.5-.154.5-.154.5-.153.5-.154.5-.153.5-.154.5-.153.5-.154.5-.154.5-.153.5-.154.5-.153.5-.154.5-.153.5-.154.5-.154.5-.153.5-.154.5-.153.5-.154.5-.153.5-.154.5-.154.5-.153.5-.154.5-.153.5-.154.5-.153.5-.154.5-.154.5-.153.5-.154.5-.153.5-.154.5-.153.5-.154.5-.154.5-.153.5-.154.5-.153.5-.154.5-.153.5-.154.5-.154.5-.153.5-.154.5-.153.5-.154.5-.153.5-.154.5-.154.5-.153.5-.154.5-.153.5-.154.5-.153.5-.154.5-.154.5-.153.5-.154.5-.153.5-.154.5-.153.5-.154.5-.154.5-.153.5-.154.5-.153.5-.154.5-.153.5-.154.5-.154.5-.153.5-.154.5-.153.5-.154.5-.153.5-.154.5-.154.5-.153.5-.154.5-.153.5-.154.5-.153.5-.154.5-.154.5-.153.5-.154.5-.153.5-.154.5-.153.5-.154.5-.154.5-.153.5-.154.5-.153.5-.154.5-.153.5-.154.5-.154.5-.153.5-.154.5-.153.5-.154.5-.153.5-.154.5-.154.5-.153.5-.154.5-.153.5-.154.5-.153.5-.154.5-.154.5-.153.5-.154.5-.153.5-.154.5-.153.5-.154.5-.154.5-.153.5-.154.5-.153.5-.154.5-.153.5-.154.5-.154.5-.153.5-.154.5-.153.5-.154.5-.153.5-.154.5-.154.5-.153.5-.154.5-.153.5-.154.5-.153.5-.154.5-.154.5-.153.5-.154.5-.153.5-.154.5-.153.5-.154.5-.154.5-.153.5-.154.5-.153.5-.154.5-.153.5-.154.5-.154.5-.153.5-.154.5-.153.5-.154.5-.153.5-.154.5-.154.5-.153.5-.154.5-.153.5-.154.5-.153.5-.154.5-.154.5-.153.5-.154.5-.153.5-.154.5-.153.5-.154.5-.154.5-.153.5-.154.5-.153.5-.154.5-.153.5-.154.5-.154.5-.153.5-.154.5-.153.5-.154.5-.153.5-.154.5-.154.5-.153.5-.154.5-.153.5-.154.5-.153.5-.154.5-.154.5-.153.5-.154.5-.153.5-.154.5-.153.5-.154.5-.154.5-.153.5-.154.5-.153.5-.154.5-.153.5-.154.5-.154.5-.153.5-.154.5-.153.5-.154.5-.153.5-.154.5-.154.5-.153.5-.154.5-.153.5-.154.5-.153.5-.154.5-.154.5-.153.5-.154.5-.153.5-.154.5-.153.5-.154.5-.154.5-.153.5-.154.5-.153.5-.154.5-.153.5-.154.5-.154.5-.153.5-.154.5-.153.5-.154.5-.153.5-.154.5-.154.5-.153.5-.154.5-.153.5-.154.5-.153.5-.154.5-.154.5-.153.5-.154.5-.153.5-.154.5-.153.5-.154.5-.154.5-.153.5-.154.5-.153.5-.154.5-.153.5-.154.5-.154.5-.153.5-.154.5-.153.5-.154.5-.153.5-.154.5-.154.5-.153.5-.154.5-.153.5-.154.5-.153.5-.154.5-.154.5-.153.5-.154.5-.153.5-.154.5-.153.5-.154.5-.154.5-.153.5-.154.5-.153.5-.154.5-.153.5-.154.5-.154.5-.153.5-.154.5-.153.5-.154.5-.153.5-.154.5-.154.5-.153.5-.154.5-.153.5-.154.5-.153.5-.154.5-.154.5-.153.5-.154.5-.153.5-.154.5-.153.5-.154.5-.154.5-.153.5-.154.5-.153.5-.154.5-.153.5-.154.5-.154.5-.153.5-.154.5-.153.5-.154.5-.153.5-.154.5-.154.5-.153.5-.154.5-.153.5-.154.5-.153.5-.154.5-.154.5-.153.5-.154.5-.153.5-.154.5-.153.5-.154.5-.154.5-.153.5-.154.5-.153.5-.154.5-.153.5-.154.5-.154.5-.153.5-.154.5-.153.5-.154.5-.153.5-.154.5-.154.5-.153.5-.154.5-.153.5-.154.5-.153.5-.154.5-.154.5-.153.5-.154.5-.153.5-.154.5-.153.5-.154.5-.154.5-.153.5-.154.5-.153.5-.154.5-.153.5-.154.5-.154.5-.153.5-.154.5-.153.5-.154.5-.153.5-.154.5-.154.5-.153.5-.154.5-.153.5-.154.5-.153.5-.154.5-.154" stroke-width="2" clip-path="url(#a)"/><path fill="none" stroke="#11accd" d="M27.907 196.429h18.5l.5-.174.5-.214.5-.209.5-.203.5-.199.5-.194.5-.189.5-.186.5-.181.5-.177.5-.174.5-.17.5-.166.5-.163.5-.161.5-.157.5-.154.5-.151.5-.149.5-.145.5-.144.5-.141.5-.138.5-.137.5-.134.5-.132.5-.129.5-.128.5-.126.5-.124.5-.122.5-.12.5-.119.5-.117.5-.115.5-.114.5-.112.5-.111.5-.109.5-.108.5-.106.5-.105.5-.104.5-.102.5-.101.5-.1.5-.099.5-.098.5-.096.5-.095.5-.095.5-.093.5-.092.5-.091.5-.09.5-.089.5-.088.5-.088.5-.086.5-.085.5-.085.5-.084.5-.083.5-.082.5-.081.5-.08.5-.08.5-.079.5-.078.5-.077.5-.077.5-.076.5-.075.5-.075.5-.074.5-.073.5-.073.5-.072.5-.071.5-.071.5-.07.5-.07.5-.069.5-.068.5-.068.5-.067.5-.067.5-.066.5-.066.5-.065.5-.065.5-.064.5-.063.5-.064.5-.062.5-.063.5-.061.5-.062.5-.06.5-.061.5-.06.5-.059.5-.059.5-.059.5-.058.5-.058.5-.058.5-.057.5-.056.5-.057.5-.055.5-.056.5-.055.5-.055.5-.054.5-.054.5-.054.5-.053.5-.053.5-.053.5-.053.5-.052.5-.051.5-.052.5-.051.5-.05.5-.051.5-.05.5-.05.5-.049.5-.049.5-.049.5-.049.5-.048.5-.048.5-.048.5-.048.5-.047.5-.047.5-.047.5-.046.5-.046.5-.046.5-.046.5-.045.5-.045.5-.045.5-.045.5-.045.5-.044.5-.044.5-.043.5-.044.5-.043.5-.043.5-.043.5-.043.5-.042.5-.042.5-.042.5-.042.5-.041.5-.042.5-.041.5-.041.5-.041.5-.04.5-.04.5-.04.5-.04.5-.04.5-.04.5-.039.5-.039.5-.039.5-.039.5-.039.5-.038.5-.038.5-.038.5-.038.5-.038.5-.038.5-.037.5-.037.5-.037.5-.037.5-.037.5-.036.5-.037.5-.036.5-.036.5-.036.5-.036.5-.035.5-.036.5-.035.5-.035.5-.035.5-.035.5-.035.5-.034.5-.035.5-.034.5-.034.5-.034.5-.034.5-.034.5-.033.5-.034.5-.033.5-.033.5-.033.5-.033.5-.033.5-.033.5-.032.5-.033.5-.032.5-.032.5-.032.5-.032.5-.032.5-.031.5-.032.5-.031.5-.032.5-.031.5-.031.5-.031.5-.031.5-.03.5-.031.5-.03.5-.031.5-.03.5-.03.5-.03.5-.03.5-.03.5-.03.5-.029.5-.03.5-.029.5-.029.5-.03.5-.029.5-.029.5-.028.5-.029.5-.029.5-.028.5-.029.5-.028.5-.029.5-.028.5-.028.5-.028.5-.028.5-.028.5-.027.5-.028.5-.027.5-.028.5-.027.5-.027.5-.028.5-.027.5-.027.5-.027.5-.026.5-.027.5-.027.5-.026.5-.027.5-.026.5-.026.5-.027.5-.026.5-.026.5-.026.5-.026.5-.025.5-.026.5-.026.5-.025.5-.026.5-.025.5-.026.5-.025.5-.025.5-.025.5-.025.5-.025.5-.025.5-.025.5-.025.5-.024.5-.025.5-.024.5-.025.5-.024.5-.024.5-.024.5-.025.5-.024.5-.024.5-.024.5-.023.5-.024.5-.024.5-.024.5-.023.5-.024.5-.023.5-.024.5-.023.5-.023.5-.023.5-.024.5-.023.5-.023.5-.022.5-.023.5-.023.5-.023.5-.023.5-.022.5-.023.5-.022.5-.023.5-.022.5-.022.5-.023.5-.022.5-.022.5-.022.5-.022.5-.022.5-.022.5-.022.5-.022.5-.021.5-.022.5-.021.5-.022.5-.022.5-.021.5-.021.5-.022.5-.021.5-.021.5-.021.5-.021.5-.022.5-.021.5-.02.5-.021.5-.021.5-.021.5-.021.5-.02.5-.021.5-.021.5-.02.5-.021.5-.02.5-.02.5-.021.5-.02.5-.02.5-.021.5-.02.5-.02.5-.02.5-.02.5-.02.5-.02.5-.019.5-.02.5-.02.5-.02.5-.019.5-.02.5-.019.5-.02.5-.019.5-.02.5-.019.5-.02.5-.019.5-.019.5-.019.5-.019.5-.02.5-.019.5-.019.5-.019.5-.019.5-.018.5-.019.5-.019.5-.019.5-.019.5-.018.5-.019.5-.018.5-.019.5-.018.5-.019.5-.018.5-.019.5-.018.5-.018.5-.019.5-.018.5-.018.5-.018.5-.018.5-.018.5-.018.5-.018.5-.018.5-.018.5-.018.5-.018.5-.018.5-.017.5-.018.5-.018.5-.017.5-.018.5-.018.5-.017.5-.018.5-.017.5-.017.5-.018.5-.017.5-.017.5-.018.5-.017.5-.017.5-.017.5-.017.5-.018.5-.017.5-.017.5-.017.5-.016.5-.017.5-.017.5-.017.5-.017.5-.017.5-.016.5-.017.5-.017.5-.016.5-.017.5-.017.5-.016.5-.017.5-.016.5-.017.5-.016.5-.016.5-.017.5-.016.5-.016.5-.017.5-.016.5-.016.5-.016.5-.016.5-.016.5-.016.5-.016.5-.016.5-.016.5-.016.5-.016.5-.016.5-.016.5-.016.5-.015.5-.016.5-.016.5-.016.5-.015.5-.016.5-.015.5-.016.5-.016.5-.015.5-.016.5-.015.5-.015.5-.016.5-.015.5-.016.5-.015.5-.015.5-.015.5-.016.5-.015.5-.015.5-.015.5-.015.5-.015.5-.015.5-.015.5-.015.5-.015.5-.015.5-.015.5-.015.5-.015.5-.015.5-.015.5-.014.5-.015.5-.015.5-.015.5-.014.5-.015.5-.015.5-.014.5-.015.5-.014.5-.015.5-.014.5-.015.5-.014.5-.015.5-.014.5-.015.5-.014.5-.014.5-.014.5-.015.5-.014.5-.014.5-.014.5-.015.5-.014.5-.014.5-.014.5-.014.5-.014.5-.014.5-.014.5-.014.5-.014.5-.014.5-.014.5-.014.5-.014.5-.014.5-.013.5-.014.5-.014.5-.014.5-.013.5-.014.5-.014.5-.014.5-.013.5-.014.5-.013.5-.014.5-.013.5-.014.5-.013.5-.014.5-.013.5-.014.5-.013.5-.014.5-.013.5-.013.5-.014.5-.013.5-.013.5-.014.5-.013.5-.013.5-.013.5-.013.5-.014.5-.013.5-.013.5-.013.5-.013.5-.013.5-.013.5-.013.5-.013.5-.013.5-.013.5-.013.5-.013.5-.013.5-.013.5-.013.5-.012.5-.013.5-.013.5-.013.5-.012.5-.013.5-.013.5-.013.5-.012.5-.013.5-.013.5-.012.5-.013.5-.012.5-.013.5-.012.5-.013.5-.012.5-.013.5-.012.5-.013.5-.012.5-.013.5-.012.5-.012.5-.013.5-.012.5-.012.5-.013.5-.012.5-.012.5-.013.5-.012.5-.012.5-.012.5-.012.5-.012.5-.013.5-.012.5-.012.5-.012.5-.012.5-.012.5-.012.5-.012.5-.012.5-.012.5-.012.5-.012.5-.012.5-.012.5-.012.5-.011.5-.012.5-.012.5-.012.5-.012.5-.012.5-.011.5-.012.5-.012.5-.012.5-.011.5-.012.5-.012.5-.011.5-.012.5-.011.5-.012.5-.012.5-.011.5-.012.5-.011.5-.012.5-.011.5-.012.5-.011.5-.012.5-.011.5-.012.5-.011.5-.011.5-.012.5-.011.5-.012.5-.011.5-.011.5-.011.5-.012.5-.011.5-.011.5-.012.5-.011.5-.011.5-.011.5-.011.5-.012.5-.011.5-.011.5-.011.5-.011.5-.011" stroke-width="2" clip-path="url(#a)"/><path fill="none" stroke="#01a995" d="M27.907 190.714h372" stroke-width="2" clip-path="url(#a)"/></svg>
