<?xml version="1.0" encoding="utf-8"?>
<!-- Generator: Adobe Illustrator 23.0.2, SVG Export Plug-In . SVG Version: 6.00 Build 0)  -->
<svg version="1.1" id="Layer_1" xmlns="http://www.w3.org/2000/svg" xmlns:xlink="http://www.w3.org/1999/xlink" x="0px" y="0px"
	 viewBox="0 0 681.1 181.6" style="enable-background:new 0 0 681.1 181.6;" xml:space="preserve">
<style type="text/css">
	.st0{fill:#37C5FD;}
	.st1{fill:#0A2A66;}
	.st2{fill:#CCFBF0;}
	.st3{font-family:'Monaco';}
	.st4{font-size:26.1414px;}
	.st5{fill:#FFD633;}
</style>
<title>wifi</title>
<path class="st0" d="M3.8,0h135.6c2.1,0,3.8,1.7,3.8,3.8v174c0,2.1-1.7,3.8-3.8,3.8H3.8c-2.1,0-3.8-1.7-3.8-3.8V3.8
	C0,1.7,1.7,0,3.8,0z"/>
<rect x="7.7" y="34.1" class="st1" width="126.6" height="11"/>
<rect x="7.7" y="57.5" class="st1" width="126.6" height="11"/>
<rect x="8.8" y="80.9" class="st1" width="126.6" height="11"/>
<rect x="8.8" y="104.3" class="st1" width="126.6" height="11"/>
<rect x="8.8" y="127.7" class="st1" width="126.6" height="11"/>
<circle class="st2" cx="125.6" cy="15.4" r="6.6"/>
<rect x="8.8" y="151.2" class="st1" width="126.6" height="11"/>
<text transform="matrix(1 0 0 1 185.7429 56.8839)" class="st3 st4">1 0 0 1 1 0 1 1 0 1 1 0 1 1 0 0</text>
<path class="st5" d="M217.5,115.8c-0.2-6-1.5-11.8-3.9-17.3c-0.5-1.1-1.6-3.3-2.2-4.4c-0.9-1.6-2.5-4.1-3.4-5.3
	c-1.1-1.4-2.4-2.8-3.7-4.1c-0.2-0.1-0.3-0.1-0.7,0c-1.4,0.9-2.5,2.1-3.4,3.5c-0.2,0.4-0.3,0.7-0.2,0.9s0.6,0.8,1.3,1.6
	s1.4,1.7,1.7,2c0.5,0.7,1.7,2.5,2.3,3.4c3.1,5,5,10.6,5.7,16.5c0.2,1.6,0.3,3.1,0.3,4.7c0,1.6-0.1,3.2-0.3,4.7
	c-0.7,6-2.7,11.7-5.9,16.8c-1.1,1.8-2.3,3.4-3.7,5c-0.7,0.8-1.2,1.4-1.3,1.5c-0.2,0.4,0,1.1,1,2.1c0.7,0.9,1.6,1.7,2.6,2.3
	c0.6,0.2,0.7,0.1,2.3-1.7c0.8-0.9,1.6-1.8,1.8-2.3c0.6-0.8,2-2.9,2.7-4C215.4,134,217.8,125,217.5,115.8z"/>
<path class="st5" d="M203.4,115.3c-0.3-4.6-1.6-9.2-3.8-13.3c-0.8-1.6-1.8-3.1-2.8-4.5c-0.8-1-1.6-1.9-2.4-2.7
	c-0.3-0.1-0.5-0.1-0.8,0c-1.2,0.9-2.3,2-3.3,3.1c-0.9,1.1-1.3,1.8-1.1,2.1c0.2,0.3,0.5,0.7,0.8,1c0.7,0.8,1.3,1.6,1.8,2.4
	c2.2,3.4,3.6,7.4,4,11.4c0.1,1.7,0.1,3.4,0,5.1c-0.4,4.1-1.8,8-4.1,11.4c-0.5,0.9-1.1,1.7-1.8,2.5c-0.3,0.3-0.5,0.6-0.8,1
	c-0.2,0.3,0.2,1,1.1,2.1c1,1.2,2.1,2.2,3.4,3.1c0.3,0.1,0.5,0.1,0.8,0c0.9-0.9,1.7-1.8,2.4-2.8c1.3-1.8,2.4-3.7,3.4-5.7
	c0.9-1.9,1.7-4,2.2-6.1C203.3,122.1,203.6,118.7,203.4,115.3z"/>
<path class="st5" d="M188,115.4c-0.3-2.7-1.3-5.4-2.8-7.7c-0.5-0.7-1-1.4-1.6-2c-0.2-0.3-0.3-0.3-0.5-0.2c-0.2,0-0.3,0.1-0.5,0.1
	c-1.3,0.9-2.5,2-3.5,3.3c-0.4,0.5-0.7,1-0.6,1.1c0.1,0.2,0.2,0.4,0.4,0.5c1.1,1.3,1.8,2.9,2.2,4.6c0.4,1.8,0.3,3.7-0.3,5.5
	c-0.4,1.2-1,2.4-1.8,3.5c-0.4,0.4-0.4,0.5-0.3,0.8c1,1.6,2.4,2.9,4,4c0.7,0.3,0.8,0.3,1.6-0.8c2-2.6,3.3-5.7,3.7-8.9
	C188.1,118,188.1,116.7,188,115.4z"/>
<path class="st5" d="M283.7,115.8c-0.2-6-1.5-11.8-3.9-17.3c-0.5-1.1-1.6-3.3-2.2-4.4c-0.9-1.6-2.5-4.1-3.5-5.3
	c-1.1-1.4-2.4-2.8-3.7-4.1c-0.3-0.1-0.3-0.1-0.7,0c-1.4,0.9-2.5,2.1-3.4,3.5c-0.2,0.3-0.3,0.6-0.2,0.9l1.3,1.6
	c0.7,0.8,1.5,1.7,1.7,2c0.5,0.7,1.7,2.5,2.3,3.4c3.1,5,5,10.6,5.7,16.5c0.2,1.6,0.3,3.1,0.3,4.7c0,1.6-0.1,3.2-0.3,4.7
	c-0.7,6-2.7,11.7-5.9,16.8c-1.1,1.8-2.3,3.4-3.7,5c-0.7,0.8-1.2,1.4-1.3,1.5c-0.2,0.4,0,1.1,1,2.1c0.7,0.9,1.6,1.7,2.6,2.3
	c0.6,0.2,0.7,0.1,2.4-1.7c0.8-0.9,1.6-1.8,1.8-2.3c0.6-0.8,2-2.9,2.7-4C281.5,134,283.9,125,283.7,115.8z"/>
<path class="st5" d="M269.5,115.3c-0.3-4.6-1.6-9.2-3.8-13.3c-0.8-1.6-1.8-3.1-2.8-4.5c-0.7-1-1.5-1.9-2.4-2.7
	c-0.3-0.1-0.5-0.1-0.8,0c-1.2,0.9-2.4,1.9-3.4,3.1c-0.9,1.1-1.3,1.8-1.1,2.1c0.2,0.2,0.4,0.5,0.8,1c0.7,0.8,1.3,1.6,1.8,2.4
	c2.3,3.4,3.7,7.3,4.1,11.4c0.1,1.7,0.1,3.4,0,5.1c-0.4,4.1-1.8,8-4.1,11.4c-0.5,0.9-1.2,1.7-1.8,2.5c-0.4,0.4-0.8,0.9-0.8,1
	s0.2,1,1.1,2.1c1,1.2,2.1,2.2,3.4,3.1c0.3,0.1,0.5,0.1,0.8,0c0.8-0.9,1.6-1.8,2.4-2.8c1.3-1.8,2.5-3.7,3.4-5.7
	c0.9-1.9,1.7-4,2.2-6.1C269.4,122,269.7,118.7,269.5,115.3z"/>
<path class="st5" d="M254.1,115.4c-0.4-3.6-1.9-7-4.4-9.7c-0.2-0.3-0.3-0.3-0.5-0.2c-0.2,0-0.3,0.1-0.4,0.1c-1.3,0.9-2.5,2-3.6,3.3
	c-0.4,0.5-0.7,1-0.6,1.1c0.1,0.2,0.2,0.4,0.4,0.5c1.1,1.3,1.9,2.9,2.2,4.6c0.4,1.8,0.3,3.7-0.3,5.5c-0.4,1.2-1,2.4-1.8,3.5
	c-0.4,0.4-0.4,0.5-0.3,0.8c1,1.6,2.4,2.9,4,3.9c0.7,0.3,0.8,0.3,1.6-0.8c2-2.6,3.3-5.7,3.7-8.9C254.3,117.9,254.2,116.7,254.1,115.4
	z"/>
<path class="st5" d="M349.7,115.8c-0.2-6-1.5-11.8-3.9-17.3c-0.5-1.1-1.6-3.3-2.2-4.4c-0.9-1.6-2.5-4.1-3.4-5.3
	c-1.1-1.4-2.4-2.8-3.7-4.1c-0.2-0.1-0.3-0.1-0.7,0c-1.4,0.9-2.5,2.1-3.4,3.5c-0.2,0.3-0.3,0.6-0.2,0.9c0,0,0.6,0.8,1.3,1.6
	s1.4,1.7,1.7,2c0.5,0.7,1.7,2.5,2.3,3.4c3.1,5,5,10.6,5.7,16.5c0.2,1.6,0.3,3.1,0.2,4.7c0,1.6,0,3.2-0.2,4.7c-0.7,6-2.8,11.7-6,16.8
	c-1.1,1.8-2.3,3.4-3.7,5c-0.7,0.8-1.2,1.4-1.3,1.5c-0.2,0.4,0,1.1,1,2.1c0.7,0.9,1.6,1.7,2.6,2.3c0.6,0.2,0.7,0.1,2.4-1.7
	c0.8-0.9,1.6-1.8,1.8-2.3c0.6-0.8,2-2.9,2.7-4C347.5,134,349.9,125,349.7,115.8z"/>
<path class="st5" d="M335.5,115.3c-0.3-4.6-1.6-9.2-3.8-13.3c-0.8-1.6-1.8-3.1-2.8-4.5c-0.5-0.6-2.2-2.6-2.4-2.7
	c-0.3-0.1-0.6-0.1-0.8,0c-1.2,0.9-2.4,1.9-3.3,3.1c-0.9,1.1-1.3,1.8-1.1,2.1c0.2,0.3,0.5,0.7,0.8,1c0.7,0.8,1.3,1.6,1.8,2.4
	c2.3,3.4,3.7,7.3,4.1,11.4c0.1,1.7,0.1,3.4,0,5.1c-0.4,4.1-1.8,8-4,11.5c-0.5,0.9-1.2,1.7-1.8,2.5c-0.4,0.4-0.8,0.9-0.8,1
	s0.2,1,1.1,2.1c1,1.2,2.1,2.2,3.3,3.1c0.3,0.1,0.6,0.1,0.8,0c0.2-0.1,1.9-2.1,2.4-2.8c1.3-1.8,2.5-3.7,3.4-5.7
	c0.9-1.9,1.7-4,2.2-6.1C335.4,122.1,335.8,118.7,335.5,115.3z"/>
<path class="st5" d="M320.2,115.4c-0.4-3.6-1.9-7-4.4-9.7c-0.2-0.3-0.3-0.3-0.5-0.2c-0.2,0-0.3,0.1-0.5,0.1c-1.3,0.9-2.5,2-3.5,3.3
	c-0.4,0.5-0.7,1-0.6,1.1c0.1,0.2,0.2,0.4,0.4,0.5c2.3,2.8,3.1,6.6,1.9,10.1c-0.4,1.2-1,2.4-1.8,3.5c-0.4,0.4-0.4,0.5-0.3,0.8
	c1,1.6,2.3,2.9,3.8,4c0.7,0.3,0.8,0.3,1.6-0.8c2-2.6,3.3-5.7,3.7-8.9C320.2,117.9,320.2,116.7,320.2,115.4z"/>
<path class="st5" d="M415.7,115.8c-0.2-6-1.5-11.8-3.9-17.3c-0.5-1.1-1.6-3.3-2.2-4.4c-0.9-1.6-2.5-4.1-3.5-5.3
	c-1.1-1.4-2.4-2.8-3.7-4.1c-0.3-0.1-0.3-0.1-0.7,0c-1.4,0.9-2.5,2.1-3.4,3.5c-0.2,0.3-0.2,0.6-0.1,0.9c0,0,0.6,0.8,1.3,1.6
	s1.4,1.7,1.7,2c0.5,0.7,1.7,2.5,2.3,3.4c3.1,5,5,10.6,5.7,16.5c0.2,1.6,0.3,3.1,0.3,4.7c0,1.6-0.1,3.2-0.3,4.7
	c-0.7,6-2.7,11.7-5.9,16.8c-1.1,1.8-2.3,3.4-3.7,5l-1.3,1.5c-0.2,0.4,0,1.1,1,2.1c0.7,0.9,1.6,1.7,2.6,2.3c0.6,0.2,0.7,0.1,2.4-1.7
	c0.8-0.9,1.6-1.8,1.8-2.3c0.6-0.8,2-2.9,2.7-4C413.5,134,416,125,415.7,115.8z"/>
<path class="st5" d="M401.6,115.3c-0.3-4.6-1.6-9.2-3.8-13.3c-0.8-1.6-1.8-3.1-2.8-4.5c-0.7-1-1.5-1.9-2.4-2.7
	c-0.3-0.1-0.5-0.1-0.8,0c-1.2,0.9-2.4,1.9-3.4,3.1c-0.9,1.1-1.3,1.8-1.1,2.1c0.2,0.3,0.5,0.7,0.8,1c0.7,0.8,1.3,1.6,1.8,2.4
	c2.3,3.4,3.7,7.3,4.1,11.4c0.1,1.7,0.1,3.4,0,5.1c-0.4,4.1-1.8,8-4.1,11.4c-0.5,0.9-1.2,1.7-1.8,2.5c-0.3,0.3-0.5,0.6-0.8,1
	c-0.2,0.3,0.2,1,1.1,2.1c1,1.2,2.1,2.2,3.4,3.1c0.3,0.1,0.5,0.1,0.8,0c0.9-0.9,1.7-1.8,2.4-2.8c1.3-1.8,2.5-3.7,3.5-5.7
	c0.9-1.9,1.7-4,2.2-6.1C401.5,122,401.8,118.7,401.6,115.3z"/>
<path class="st5" d="M386.2,115.4c-0.3-2.7-1.3-5.4-2.8-7.7c-0.5-0.7-1-1.4-1.6-2c-0.2-0.3-0.3-0.3-0.5-0.2c-0.2,0-0.3,0.1-0.4,0.1
	c-1.3,0.9-2.5,2-3.5,3.3c-0.4,0.5-0.7,1-0.6,1.1c0.1,0.2,0.2,0.4,0.4,0.5c1.1,1.3,1.9,2.9,2.2,4.6c0.4,1.8,0.3,3.7-0.3,5.5
	c-0.4,1.2-1,2.4-1.8,3.5c-0.4,0.4-0.4,0.5-0.3,0.8c1,1.6,2.4,2.9,4,4c0.7,0.3,0.8,0.3,1.6-0.8c2-2.6,3.3-5.7,3.7-8.9
	C386.3,118,386.3,116.7,386.2,115.4z"/>
<path class="st5" d="M481.8,115.8c-0.2-6-1.5-11.8-3.9-17.3c-0.5-1.1-1.6-3.3-2.2-4.4c-0.9-1.6-2.5-4.1-3.5-5.3
	c-1.1-1.4-2.4-2.8-3.7-4.1c-0.2-0.1-0.3-0.1-0.7,0c-1.4,0.9-2.5,2.1-3.4,3.5c-0.2,0.3-0.3,0.6-0.2,0.9c0,0,0.6,0.8,1.3,1.6
	s1.5,1.7,1.7,2c0.5,0.7,1.7,2.5,2.3,3.4c3.1,5,5,10.6,5.7,16.5c0.2,1.6,0.3,3.1,0.2,4.7c0,1.6,0,3.2-0.2,4.7
	c-0.7,6-2.7,11.7-5.9,16.8c-1.1,1.8-2.3,3.4-3.7,5c-0.7,0.8-1.2,1.4-1.3,1.5c-0.2,0.4,0,1.1,1,2.1c0.7,0.9,1.6,1.7,2.6,2.3
	c0.6,0.2,0.7,0.1,2.4-1.7c0.8-0.9,1.6-1.8,1.8-2.3c0.6-0.8,2-2.9,2.7-4C479.6,134,482.1,125,481.8,115.8z"/>
<path class="st5" d="M467.7,115.3c-0.3-4.6-1.6-9.2-3.8-13.3c-0.8-1.6-1.8-3.1-2.8-4.5c-0.5-0.6-2.2-2.6-2.4-2.7
	c-0.3-0.1-0.6-0.1-0.8,0c-1.2,0.9-2.4,1.9-3.3,3.1c-0.9,1.1-1.3,1.8-1.1,2.1c0.2,0.3,0.5,0.7,0.8,1c0.7,0.8,1.3,1.6,1.8,2.4
	c2.3,3.4,3.7,7.3,4.1,11.4c0.1,1.7,0.1,3.4,0,5.1c-0.4,4.1-1.8,8-4.1,11.4c-0.5,0.9-1.1,1.7-1.8,2.5c-0.4,0.4-0.7,0.9-0.8,1
	s0.2,1,1.1,2.1c1,1.2,2.1,2.2,3.3,3.1c0.3,0.1,0.6,0.1,0.8,0c0.2-0.1,1.9-2.1,2.4-2.8c1.3-1.8,2.5-3.7,3.4-5.7
	c0.9-1.9,1.6-3.9,2.2-5.9C467.5,122.1,467.9,118.7,467.7,115.3z"/>
<path class="st5" d="M452.3,115.4c-0.4-3.6-1.9-7-4.4-9.7c-0.2-0.3-0.3-0.3-0.5-0.2c-0.2,0-0.3,0.1-0.4,0.1c-1.3,0.9-2.5,2-3.5,3.3
	c-0.4,0.5-0.7,1-0.6,1.1c0.1,0.2,0.2,0.4,0.4,0.5c1.1,1.3,1.9,2.9,2.2,4.6c0.4,1.8,0.3,3.7-0.3,5.5c-0.4,1.2-1,2.4-1.8,3.5
	c-0.4,0.4-0.4,0.5-0.3,0.8c1,1.6,2.4,2.9,4,4c0.7,0.3,0.8,0.3,1.6-0.8c2-2.6,3.3-5.7,3.7-8.9C452.4,118,452.4,116.7,452.3,115.4z"/>
<path class="st5" d="M547.9,115.8c-0.2-6-1.5-11.8-3.9-17.3c-0.5-1.1-1.6-3.3-2.2-4.4c-0.9-1.6-2.5-4.1-3.4-5.3
	c-1.1-1.4-2.4-2.8-3.7-4.1c-0.2-0.1-0.3-0.1-0.7,0c-1.4,0.9-2.5,2.1-3.4,3.5c-0.2,0.4-0.3,0.7-0.2,0.9c0.1,0.3,0.6,0.8,1.3,1.6
	s1.4,1.7,1.7,2c0.5,0.7,1.7,2.5,2.3,3.4c3.1,5,5,10.6,5.7,16.5c0.2,1.6,0.3,3.1,0.2,4.7c0,1.6,0,3.2-0.2,4.7c-0.7,6-2.8,11.7-6,16.8
	c-1.1,1.8-2.3,3.4-3.7,5c-0.7,0.8-1.2,1.4-1.3,1.5c-0.2,0.4,0,1.1,1,2.1c0.7,0.9,1.6,1.7,2.6,2.3c0.6,0.2,0.7,0.1,2.3-1.7
	c0.8-0.9,1.6-1.8,1.8-2.3c0.6-0.8,2-2.9,2.7-4C545.7,134,548.1,125,547.9,115.8z"/>
<path class="st5" d="M533.7,115.3c-0.3-4.6-1.6-9.2-3.8-13.3c-0.9-1.6-1.8-3.1-2.9-4.5c-0.8-1-1.6-1.9-2.4-2.7
	c-0.3-0.1-0.5-0.1-0.8,0c-1.2,0.9-2.4,1.9-3.4,3.1c-0.9,1.1-1.3,1.8-1.1,2.1c0.2,0.3,0.5,0.7,0.8,1c0.7,0.8,1.3,1.6,1.8,2.4
	c2.3,3.4,3.7,7.3,4.1,11.4c0.1,1.7,0.1,3.4,0,5.1c-0.4,4.1-1.8,8-4.1,11.4c-0.5,0.9-1.1,1.7-1.8,2.5c-0.3,0.3-0.5,0.6-0.8,1
	c-0.2,0.3,0.2,1,1.1,2.1c1,1.2,2.1,2.2,3.4,3.1c0.3,0.1,0.5,0.1,0.8,0c0.9-0.8,1.7-1.7,2.4-2.6c1.3-1.8,2.4-3.7,3.4-5.7
	c0.9-1.9,1.7-4,2.2-6.1C533.6,122.1,533.9,118.7,533.7,115.3z"/>
<path class="st5" d="M518.4,115.4c-0.3-2.7-1.3-5.4-2.8-7.7c-0.5-0.7-1-1.4-1.6-2c-0.2-0.3-0.3-0.3-0.5-0.2c-0.2,0-0.3,0.1-0.5,0.1
	c-1.3,0.9-2.5,2-3.5,3.3c-0.4,0.5-0.7,1-0.6,1.1c0.1,0.2,0.2,0.4,0.4,0.5c1.1,1.3,1.9,2.9,2.2,4.6c0.4,1.8,0.3,3.7-0.3,5.5
	c-0.4,1.2-1,2.4-1.8,3.5c-0.4,0.4-0.4,0.5-0.3,0.8c1,1.6,2.4,2.9,4,4c0.7,0.3,0.8,0.3,1.6-0.8c2-2.6,3.3-5.7,3.7-8.9
	C518.5,118,518.5,116.7,518.4,115.4z"/>
<g>
	<path class="st5" d="M613.9,115.8c-0.2-6-1.5-11.8-3.9-17.3c-0.5-1.1-1.6-3.3-2.2-4.4c-0.9-1.6-2.5-4.1-3.5-5.3
		c-1.1-1.4-2.4-2.8-3.7-4.1c-0.3-0.1-0.3-0.1-0.7,0c-1.3,1-2.5,2.2-3.3,3.6c-0.2,0.3-0.3,0.6-0.2,0.9l1.3,1.6c0.7,0.8,1.5,1.7,1.7,2
		c0.5,0.7,1.7,2.5,2.3,3.4c3.1,5,5,10.6,5.7,16.5c0.2,1.6,0.2,3.1,0.2,4.7c0,1.6-0.1,3.2-0.3,4.7c-0.7,6-2.7,11.7-5.9,16.8
		c-1.1,1.8-2.3,3.4-3.7,5l-1.3,1.5c-0.2,0.4,0,1.1,1,2.1c0.7,0.9,1.6,1.7,2.6,2.3c0.6,0.2,0.7,0.1,2.4-1.7c0.8-0.9,1.6-1.8,1.8-2.3
		c0.6-0.8,2-2.9,2.7-4C611.8,134,614.2,125,613.9,115.8z"/>
	<path class="st5" d="M599.8,115.3c-0.3-4.6-1.6-9.2-3.8-13.3c-0.8-1.6-1.8-3.1-2.8-4.5c-0.7-1-1.5-1.9-2.4-2.7
		c-0.3-0.1-0.5-0.1-0.8,0c-1.2,0.9-2.4,1.9-3.4,3.1c-0.9,1.1-1.3,1.8-1.1,2.1c0.2,0.2,0.4,0.5,0.8,1c0.7,0.8,1.3,1.6,1.8,2.4
		c2.3,3.4,3.7,7.3,4.1,11.4c0.1,1.7,0.1,3.4,0,5.1c-0.4,4.1-1.8,8-4.1,11.4c-0.5,0.9-1.2,1.7-1.8,2.5c-0.4,0.4-0.8,0.9-0.8,1
		c-0.1,0.1,0.2,1,1.1,2.1c1,1.2,2.1,2.2,3.4,3.1c0.3,0.1,0.5,0.1,0.8,0c0.8-0.9,1.6-1.8,2.4-2.8c1.3-1.8,2.5-3.6,3.4-5.6
		c0.9-1.9,1.7-4,2.2-6.1C599.7,122.1,600,118.7,599.8,115.3z"/>
	<path class="st5" d="M584.4,115.4c-0.4-3.6-1.9-7-4.4-9.7c-0.2-0.3-0.3-0.3-0.5-0.2c-0.2,0-0.3,0.1-0.4,0.1c-1.3,0.9-2.5,2-3.5,3.3
		c-0.4,0.5-0.7,1-0.6,1.1c0.1,0.2,0.2,0.4,0.4,0.5c1.1,1.3,1.9,2.9,2.2,4.6c0.4,1.8,0.3,3.7-0.3,5.5c-0.4,1.2-1,2.4-1.8,3.5
		c-0.4,0.4-0.4,0.5-0.3,0.8c1,1.6,2.4,2.9,4,4c0.7,0.3,0.8,0.3,1.6-0.8c2-2.6,3.3-5.7,3.7-8.9C584.6,118,584.5,116.7,584.4,115.4z"
		/>
</g>
<g>
	<path class="st5" d="M681.1,115.8c-0.2-6-1.5-11.8-3.9-17.3c-0.5-1.1-1.6-3.3-2.2-4.4c-0.9-1.6-2.5-4.1-3.5-5.3
		c-1.1-1.4-2.4-2.8-3.7-4.1c-0.3-0.1-0.3-0.1-0.7,0c-1.3,1-2.5,2.2-3.3,3.6c-0.2,0.3-0.3,0.6-0.2,0.9l1.3,1.6c0.7,0.8,1.5,1.7,1.7,2
		c0.5,0.7,1.7,2.5,2.3,3.4c3.1,5,5,10.6,5.7,16.5c0.2,1.6,0.2,3.1,0.2,4.7c0,1.6-0.1,3.2-0.3,4.7c-0.7,6-2.7,11.7-5.9,16.8
		c-1.1,1.8-2.3,3.4-3.7,5l-1.3,1.5c-0.2,0.4,0,1.1,1,2.1c0.7,0.9,1.6,1.7,2.6,2.3c0.6,0.2,0.7,0.1,2.4-1.7c0.8-0.9,1.6-1.8,1.8-2.3
		c0.6-0.8,2-2.9,2.7-4C679,134,681.4,125,681.1,115.8z"/>
	<path class="st5" d="M667,115.3c-0.3-4.6-1.6-9.2-3.8-13.3c-0.8-1.6-1.8-3.1-2.8-4.5c-0.7-1-1.5-1.9-2.4-2.7
		c-0.3-0.1-0.5-0.1-0.8,0c-1.2,0.9-2.4,1.9-3.4,3.1c-0.9,1.1-1.3,1.8-1.1,2.1c0.2,0.2,0.4,0.5,0.8,1c0.7,0.8,1.3,1.6,1.8,2.4
		c2.3,3.4,3.7,7.3,4.1,11.4c0.1,1.7,0.1,3.4,0,5.1c-0.4,4.1-1.8,8-4.1,11.4c-0.5,0.9-1.2,1.7-1.8,2.5c-0.4,0.4-0.8,0.9-0.8,1
		c-0.1,0.1,0.2,1,1.1,2.1c1,1.2,2.1,2.2,3.4,3.1c0.3,0.1,0.5,0.1,0.8,0c0.8-0.9,1.6-1.8,2.4-2.8c1.3-1.8,2.5-3.6,3.4-5.6
		c0.9-1.9,1.7-4,2.2-6.1C666.9,122.1,667.2,118.7,667,115.3z"/>
	<path class="st5" d="M651.6,115.4c-0.4-3.6-1.9-7-4.4-9.7c-0.2-0.3-0.3-0.3-0.5-0.2c-0.2,0-0.3,0.1-0.4,0.1c-1.3,0.9-2.5,2-3.5,3.3
		c-0.4,0.5-0.7,1-0.6,1.1c0.1,0.2,0.2,0.4,0.4,0.5c1.1,1.3,1.9,2.9,2.2,4.6c0.4,1.8,0.3,3.7-0.3,5.5c-0.4,1.2-1,2.4-1.8,3.5
		c-0.4,0.4-0.4,0.5-0.3,0.8c1,1.6,2.4,2.9,4,4c0.7,0.3,0.8,0.3,1.6-0.8c2-2.6,3.3-5.7,3.7-8.9C651.7,118,651.7,116.7,651.6,115.4z"
		/>
</g>
</svg>
