<svg id="Layer_1" data-name="Layer 1" xmlns="http://www.w3.org/2000/svg" viewBox="0 0 369.34 114.61"><defs><style>.cls-1{fill:#789ba8;}.cls-2{fill:#0a2a66;}.cls-3{fill:#ccfbf0;}.cls-4{fill:#14bf96;}.cls-5{fill:#e0e0e0;}.cls-6{font-size:7px;font-family:Monaco, Monaco;}.cls-7{fill:#37c5fd;}</style></defs><title>ISP -&amp;gt; root name</title><rect class="cls-1" x="281.75" width="87.59" height="97.02" rx="2.06" ry="2.06"/><rect class="cls-2" x="286.47" y="20.89" width="77.48" height="6.74"/><rect class="cls-2" x="286.47" y="35.2" width="77.48" height="6.74"/><rect class="cls-2" x="287.14" y="49.52" width="77.48" height="6.74"/><rect class="cls-2" x="287.14" y="63.84" width="77.48" height="6.74"/><rect class="cls-2" x="287.14" y="78.15" width="77.48" height="6.74"/><circle class="cls-3" cx="358.56" cy="9.43" r="4.04"/><rect class="cls-4" x="97.77" y="21.81" width="160.01" height="4.62"/><polygon class="cls-4" points="272.17 24.26 255.3 16 255.3 32.53 272.17 24.26"/><ellipse class="cls-5" cx="180.91" cy="23.98" rx="42.26" ry="14.2"/><text class="cls-6" transform="translate(149.63 26.58)">.org domains?</text><path d="M288.44,114.53h-1.22a.53.53,0,0,1-.5-.27L285.2,112a.57.57,0,0,0-.19-.19.78.78,0,0,0-.3-.05h-.57v2.82h-1.35V107.3H285a4.27,4.27,0,0,1,1.27.16,2.38,2.38,0,0,1,.86.42,1.76,1.76,0,0,1,.5.66,2.13,2.13,0,0,1,.16.84,2.17,2.17,0,0,1-.11.69,1.75,1.75,0,0,1-.31.59,1.88,1.88,0,0,1-.5.47,2.42,2.42,0,0,1-.67.31,1.88,1.88,0,0,1,.24.18,1.12,1.12,0,0,1,.19.24ZM285,110.74a2.19,2.19,0,0,0,.66-.09,1.21,1.21,0,0,0,.46-.26,1.05,1.05,0,0,0,.27-.4,1.19,1.19,0,0,0,.1-.51,1,1,0,0,0-.37-.84,1.71,1.71,0,0,0-1.11-.3h-.85v2.4Z"/><path d="M291,109.32a2.87,2.87,0,0,1,1,.19,2.31,2.31,0,0,1,.8.52,2.41,2.41,0,0,1,.51.83,3.21,3.21,0,0,1,.18,1.1,3.17,3.17,0,0,1-.18,1.1,2.32,2.32,0,0,1-.51.83,2.2,2.2,0,0,1-.8.53,2.68,2.68,0,0,1-1,.19,2.76,2.76,0,0,1-1-.19,2.2,2.2,0,0,1-.8-.53,2.32,2.32,0,0,1-.51-.83,3.17,3.17,0,0,1-.19-1.1,3.21,3.21,0,0,1,.19-1.1,2.41,2.41,0,0,1,.51-.83,2.31,2.31,0,0,1,.8-.52A3,3,0,0,1,291,109.32Zm0,4.34a1.08,1.08,0,0,0,1-.43,2.21,2.21,0,0,0,.3-1.26,2.25,2.25,0,0,0-.3-1.27,1.27,1.27,0,0,0-1.91,0,2.72,2.72,0,0,0,0,2.52A1.13,1.13,0,0,0,291,113.66Z"/><path d="M296.7,109.32a2.87,2.87,0,0,1,1,.19,2.31,2.31,0,0,1,.8.52,2.44,2.44,0,0,1,.52.83,3.47,3.47,0,0,1,.18,1.1,3.43,3.43,0,0,1-.18,1.1,2.34,2.34,0,0,1-.52.83,2.2,2.2,0,0,1-.8.53,2.94,2.94,0,0,1-2.08,0,2.2,2.2,0,0,1-.8-.53,2.34,2.34,0,0,1-.52-.83,3.17,3.17,0,0,1-.18-1.1,3.21,3.21,0,0,1,.18-1.1,2.44,2.44,0,0,1,.52-.83,2.31,2.31,0,0,1,.8-.52A2.87,2.87,0,0,1,296.7,109.32Zm0,4.34a1.07,1.07,0,0,0,.95-.43A2.13,2.13,0,0,0,298,112a2.17,2.17,0,0,0-.31-1.27,1.07,1.07,0,0,0-.95-.43,1.09,1.09,0,0,0-1,.44,2.72,2.72,0,0,0,0,2.52A1.13,1.13,0,0,0,296.7,113.66Z"/><path d="M301.79,114.61a1.35,1.35,0,0,1-1-.37,1.47,1.47,0,0,1-.36-1v-2.86h-.52a.22.22,0,0,1-.17-.07.22.22,0,0,1-.07-.19v-.49l.83-.14.26-1.4a.24.24,0,0,1,.09-.15.28.28,0,0,1,.18-.06h.64v1.62H303v.88h-1.37v2.78a.53.53,0,0,0,.12.37.4.4,0,0,0,.32.14.5.5,0,0,0,.19,0l.14-.06.1,0a.16.16,0,0,1,.09,0,.12.12,0,0,1,.09,0,.29.29,0,0,1,.08.08l.37.6a2,2,0,0,1-.62.34A2.27,2.27,0,0,1,301.79,114.61Z"/><path d="M312.52,107.3v7.23h-.69a.54.54,0,0,1-.27,0,.48.48,0,0,1-.2-.18l-3.78-4.82c0,.22,0,.43,0,.61v4.44h-1.19V107.3h.86l.11,0,.09.07a.57.57,0,0,1,.1.11l3.79,4.84,0-.35c0-.11,0-.21,0-.31v-4.4Z"/><path d="M313.69,110.12a3,3,0,0,1,2.13-.81,2.07,2.07,0,0,1,.8.15,1.5,1.5,0,0,1,.6.41,1.68,1.68,0,0,1,.37.62,2.32,2.32,0,0,1,.13.8v3.24h-.56a.5.5,0,0,1-.27,0,.36.36,0,0,1-.15-.21l-.11-.37a4.73,4.73,0,0,1-.38.31,2.46,2.46,0,0,1-.39.22,2,2,0,0,1-.92.18,2.37,2.37,0,0,1-.61-.08,1.29,1.29,0,0,1-.47-.27,1.13,1.13,0,0,1-.31-.43,1.62,1.62,0,0,1-.11-.61,1.21,1.21,0,0,1,.06-.38,1.29,1.29,0,0,1,.22-.37,1.56,1.56,0,0,1,.38-.33,2.86,2.86,0,0,1,.58-.27,4.72,4.72,0,0,1,.8-.19,7.47,7.47,0,0,1,1-.09v-.3a1.11,1.11,0,0,0-.23-.76.8.8,0,0,0-.63-.25,1.72,1.72,0,0,0-.5.07,1.8,1.8,0,0,0-.34.16l-.28.16a.5.5,0,0,1-.27.07.32.32,0,0,1-.22-.07.57.57,0,0,1-.15-.16Zm2.83,2.22a6.64,6.64,0,0,0-.91.1,2.24,2.24,0,0,0-.58.17.84.84,0,0,0-.32.24.59.59,0,0,0-.09.31.51.51,0,0,0,.19.46.81.81,0,0,0,.51.14,1.45,1.45,0,0,0,.65-.13,2.07,2.07,0,0,0,.55-.42Z"/><path d="M318.88,114.53V109.4h.76a.3.3,0,0,1,.31.23l.08.38a3.7,3.7,0,0,1,.28-.28,2.2,2.2,0,0,1,.32-.21,1.77,1.77,0,0,1,.78-.2,1.19,1.19,0,0,1,.8.27,1.57,1.57,0,0,1,.47.69,1.5,1.5,0,0,1,.3-.43,1.57,1.57,0,0,1,.39-.3,1.81,1.81,0,0,1,.46-.17,2,2,0,0,1,.49-.06,2.18,2.18,0,0,1,.75.13,1.59,1.59,0,0,1,.56.38,1.72,1.72,0,0,1,.34.61,2.64,2.64,0,0,1,.12.83v3.26h-1.24v-3.26a1.13,1.13,0,0,0-.21-.74.83.83,0,0,0-.63-.25,1,1,0,0,0-.36.07.67.67,0,0,0-.28.19.77.77,0,0,0-.19.3,1.18,1.18,0,0,0-.07.43v3.26h-1.25v-3.26a1.12,1.12,0,0,0-.2-.75.76.76,0,0,0-.61-.24,1,1,0,0,0-.5.14,1.62,1.62,0,0,0-.44.36v3.75Z"/><path d="M328.2,112.12a2.61,2.61,0,0,0,.15.69,1.29,1.29,0,0,0,.29.47,1.07,1.07,0,0,0,.42.28,1.83,1.83,0,0,0,1.07,0,1.88,1.88,0,0,0,.38-.15l.28-.16a.55.55,0,0,1,.24-.07.26.26,0,0,1,.23.12l.35.45a2,2,0,0,1-.46.4,2,2,0,0,1-.53.26,2.7,2.7,0,0,1-.56.14,3.6,3.6,0,0,1-.56,0,2.64,2.64,0,0,1-1-.18,2.3,2.3,0,0,1-.81-.52,2.66,2.66,0,0,1-.53-.86,3.38,3.38,0,0,1-.19-1.19,2.71,2.71,0,0,1,.17-1,2.22,2.22,0,0,1,.48-.8,2.34,2.34,0,0,1,.78-.55,2.59,2.59,0,0,1,1-.2,2.66,2.66,0,0,1,.9.16,1.92,1.92,0,0,1,.7.45,2,2,0,0,1,.46.73,2.78,2.78,0,0,1,.17,1,.82.82,0,0,1-.06.38.26.26,0,0,1-.23.09Zm2.36-.74a1.33,1.33,0,0,0-.07-.45,1,1,0,0,0-.2-.38,1,1,0,0,0-.34-.25,1.21,1.21,0,0,0-.48-.09,1.18,1.18,0,0,0-.85.3,1.6,1.6,0,0,0-.39.87Z"/><path d="M339.07,108.62a.39.39,0,0,1-.13.15.28.28,0,0,1-.16,0,.43.43,0,0,1-.23-.08l-.3-.17a2.4,2.4,0,0,0-.39-.17,1.46,1.46,0,0,0-.54-.08,1.45,1.45,0,0,0-.49.07.89.89,0,0,0-.35.18.77.77,0,0,0-.22.29,1.1,1.1,0,0,0-.06.37.59.59,0,0,0,.14.42,1.09,1.09,0,0,0,.37.29,3.37,3.37,0,0,0,.54.22l.61.2c.21.07.42.16.62.25a2.25,2.25,0,0,1,.53.36,1.56,1.56,0,0,1,.38.53,1.8,1.8,0,0,1,.14.77,2.54,2.54,0,0,1-.16.92,2.17,2.17,0,0,1-.49.74,2.37,2.37,0,0,1-.79.5,3,3,0,0,1-1.06.18,3.93,3.93,0,0,1-.69-.06,3.65,3.65,0,0,1-.64-.2,3.19,3.19,0,0,1-.58-.3,2.22,2.22,0,0,1-.47-.39L335,113a.37.37,0,0,1,.13-.12.34.34,0,0,1,.17-.05.5.5,0,0,1,.27.11l.34.22a2.57,2.57,0,0,0,.47.23,1.81,1.81,0,0,0,.65.1,1.3,1.3,0,0,0,.88-.27,1,1,0,0,0,.32-.78.77.77,0,0,0-.14-.47,1.15,1.15,0,0,0-.38-.3,3.38,3.38,0,0,0-.54-.21q-.3-.08-.6-.18c-.21-.07-.41-.15-.62-.24a2,2,0,0,1-.53-.37,1.63,1.63,0,0,1-.38-.56,2.21,2.21,0,0,1-.14-.83,1.9,1.9,0,0,1,.16-.77,2.14,2.14,0,0,1,.45-.67,2.38,2.38,0,0,1,.74-.46,2.67,2.67,0,0,1,1-.18,3.54,3.54,0,0,1,1.19.2,2.79,2.79,0,0,1,.91.56Z"/><path d="M341.44,112.12a2.63,2.63,0,0,0,.14.69,1.45,1.45,0,0,0,.29.47,1.11,1.11,0,0,0,.43.28,1.83,1.83,0,0,0,1.07,0,1.88,1.88,0,0,0,.38-.15l.28-.16a.55.55,0,0,1,.24-.07.26.26,0,0,1,.23.12l.35.45a2,2,0,0,1-.46.4,2.17,2.17,0,0,1-.53.26,2.7,2.7,0,0,1-.56.14,3.6,3.6,0,0,1-.56,0,2.73,2.73,0,0,1-1-.18,2.35,2.35,0,0,1-.8-.52,2.66,2.66,0,0,1-.53-.86,3.37,3.37,0,0,1-.2-1.19,2.94,2.94,0,0,1,.17-1,2.39,2.39,0,0,1,.49-.8,2.34,2.34,0,0,1,.78-.55,2.59,2.59,0,0,1,1-.2,2.56,2.56,0,0,1,.89.16,1.87,1.87,0,0,1,.71.45,2,2,0,0,1,.46.73,2.78,2.78,0,0,1,.17,1,.82.82,0,0,1-.06.38.26.26,0,0,1-.23.09Zm2.36-.74a1.33,1.33,0,0,0-.07-.45,1,1,0,0,0-.2-.38,1.07,1.07,0,0,0-.34-.25,1.22,1.22,0,0,0-.49-.09,1.17,1.17,0,0,0-.84.3,1.6,1.6,0,0,0-.39.87Z"/><path d="M347,110.29a2.33,2.33,0,0,1,.57-.72,1.24,1.24,0,0,1,.78-.26,1,1,0,0,1,.57.15l-.08.93a.32.32,0,0,1-.07.13.25.25,0,0,1-.13,0,1,1,0,0,1-.22,0l-.29,0a1.06,1.06,0,0,0-.37.06.84.84,0,0,0-.28.18,1,1,0,0,0-.23.27q-.09.17-.18.36v3.16h-1.24V109.4h.73a.4.4,0,0,1,.26.07.38.38,0,0,1,.1.24Z"/><path d="M354.19,109.4l-2,5.13H351l-2-5.13h1a.42.42,0,0,1,.23.07.31.31,0,0,1,.12.16l1,2.74c.06.16.1.32.14.47s.08.31.11.46c0-.15.07-.3.11-.46s.09-.31.14-.47l1-2.74a.4.4,0,0,1,.13-.16.38.38,0,0,1,.21-.07Z"/><path d="M355.63,112.12a2.27,2.27,0,0,0,.15.69,1.29,1.29,0,0,0,.29.47,1.07,1.07,0,0,0,.42.28,1.83,1.83,0,0,0,1.07,0,1.88,1.88,0,0,0,.38-.15l.28-.16a.55.55,0,0,1,.24-.07.26.26,0,0,1,.23.12l.35.45a2,2,0,0,1-.46.4,2.17,2.17,0,0,1-.53.26,2.7,2.7,0,0,1-.56.14,3.6,3.6,0,0,1-.56,0,2.64,2.64,0,0,1-1-.18,2.3,2.3,0,0,1-.81-.52,2.66,2.66,0,0,1-.53-.86,3.37,3.37,0,0,1-.2-1.19,2.94,2.94,0,0,1,.17-1,2.39,2.39,0,0,1,.49-.8,2.34,2.34,0,0,1,.78-.55,2.59,2.59,0,0,1,1-.2,2.66,2.66,0,0,1,.9.16,1.92,1.92,0,0,1,.7.45,2,2,0,0,1,.46.73,2.78,2.78,0,0,1,.17,1,.82.82,0,0,1-.06.38.26.26,0,0,1-.23.09Zm2.36-.74a1.33,1.33,0,0,0-.07-.45,1,1,0,0,0-.2-.38,1,1,0,0,0-.34-.25,1.21,1.21,0,0,0-.48-.09,1.18,1.18,0,0,0-.85.3,1.6,1.6,0,0,0-.39.87Z"/><path d="M361.19,110.29a2.33,2.33,0,0,1,.57-.72,1.24,1.24,0,0,1,.78-.26,1,1,0,0,1,.57.15l-.08.93a.32.32,0,0,1-.07.13.25.25,0,0,1-.13,0,1,1,0,0,1-.22,0l-.29,0a1.06,1.06,0,0,0-.37.06.84.84,0,0,0-.28.18,1,1,0,0,0-.23.27q-.09.17-.18.36v3.16H360V109.4h.72a.4.4,0,0,1,.26.07.34.34,0,0,1,.1.24Z"/><path d="M366.87,110.4a.32.32,0,0,1-.11.12.26.26,0,0,1-.14,0,.49.49,0,0,1-.19,0l-.24-.11a2.08,2.08,0,0,0-.3-.12,1.64,1.64,0,0,0-.41,0,.94.94,0,0,0-.57.16.48.48,0,0,0-.21.4.36.36,0,0,0,.11.28.88.88,0,0,0,.28.2,3.06,3.06,0,0,0,.4.15l.46.15a3.66,3.66,0,0,1,.46.18,1.84,1.84,0,0,1,.4.26,1.37,1.37,0,0,1,.29.38,1.22,1.22,0,0,1,.1.53,1.68,1.68,0,0,1-.13.68,1.5,1.5,0,0,1-.39.54,2,2,0,0,1-.64.36,3,3,0,0,1-.89.12,2.85,2.85,0,0,1-.51,0,3.94,3.94,0,0,1-.49-.14,2.11,2.11,0,0,1-.43-.2,1.83,1.83,0,0,1-.35-.25l.29-.47a.53.53,0,0,1,.13-.13.36.36,0,0,1,.19,0,.43.43,0,0,1,.22.06,1.54,1.54,0,0,0,.23.14,1.92,1.92,0,0,0,.32.14,1.24,1.24,0,0,0,.46.07,1.35,1.35,0,0,0,.38,0,.8.8,0,0,0,.26-.14.48.48,0,0,0,.15-.2.59.59,0,0,0,.05-.23.44.44,0,0,0-.11-.3,1.26,1.26,0,0,0-.28-.2l-.41-.15a4.11,4.11,0,0,1-.46-.15,3.8,3.8,0,0,1-.47-.18,1.68,1.68,0,0,1-.4-.28,1.18,1.18,0,0,1-.29-.4,1.43,1.43,0,0,1-.11-.58,1.54,1.54,0,0,1,.13-.6,1.28,1.28,0,0,1,.37-.5,1.92,1.92,0,0,1,.6-.34,2.65,2.65,0,0,1,.84-.13,2.49,2.49,0,0,1,1,.18,2.33,2.33,0,0,1,.73.46Z"/><rect class="cls-4" x="112.81" y="62.64" width="160.01" height="4.62" transform="translate(385.62 129.9) rotate(180)"/><polygon class="cls-4" points="98.42 64.81 115.29 73.07 115.29 56.55 98.42 64.81"/><ellipse class="cls-5" cx="180.91" cy="64.8" rx="42.26" ry="14.2"/><text class="cls-6" transform="translate(156.63 67.4)">199.19.54.1</text><rect class="cls-7" width="87.59" height="97.02" rx="2.06" ry="2.06"/><rect class="cls-2" x="4.72" y="20.89" width="77.48" height="6.74"/><rect class="cls-2" x="4.72" y="35.2" width="77.48" height="6.74"/><rect class="cls-2" x="5.39" y="49.52" width="77.48" height="6.74"/><rect class="cls-2" x="5.39" y="63.84" width="77.48" height="6.74"/><rect class="cls-2" x="5.39" y="78.15" width="77.48" height="6.74"/><circle class="cls-3" cx="76.81" cy="9.43" r="4.04"/><path d="M1.83,114.53H.48V107.3H1.83Z"/><path d="M7.29,108.62a.39.39,0,0,1-.13.15.28.28,0,0,1-.16,0,.46.46,0,0,1-.23-.08l-.29-.17a3,3,0,0,0-.4-.17,1.46,1.46,0,0,0-.54-.08,1.45,1.45,0,0,0-.49.07.89.89,0,0,0-.35.18.66.66,0,0,0-.21.29.9.9,0,0,0-.07.37.59.59,0,0,0,.14.42,1,1,0,0,0,.38.29,2.92,2.92,0,0,0,.53.22l.62.2a6.5,6.5,0,0,1,.61.25,2.54,2.54,0,0,1,.54.36,1.68,1.68,0,0,1,.37.53,1.79,1.79,0,0,1,.15.77,2.55,2.55,0,0,1-.17.92,2.17,2.17,0,0,1-.49.74,2.37,2.37,0,0,1-.79.5,2.91,2.91,0,0,1-1.06.18,3.82,3.82,0,0,1-.68-.06,3.5,3.5,0,0,1-.65-.2,3.1,3.1,0,0,1-.57-.3,2.28,2.28,0,0,1-.48-.39l.39-.64a.37.37,0,0,1,.13-.12.34.34,0,0,1,.17-.05.5.5,0,0,1,.27.11l.35.22a2.19,2.19,0,0,0,.46.23,1.81,1.81,0,0,0,.65.1,1.33,1.33,0,0,0,.89-.27,1,1,0,0,0,.31-.78.77.77,0,0,0-.14-.47,1.15,1.15,0,0,0-.38-.3,3.25,3.25,0,0,0-.53-.21c-.2,0-.41-.11-.61-.18a6.44,6.44,0,0,1-.61-.24,2,2,0,0,1-.54-.37,1.63,1.63,0,0,1-.38-.56,2.21,2.21,0,0,1-.14-.83,1.9,1.9,0,0,1,.16-.77,2,2,0,0,1,.46-.67,2.27,2.27,0,0,1,.74-.46,2.64,2.64,0,0,1,1-.18,3.48,3.48,0,0,1,1.18.2,2.84,2.84,0,0,1,.92.56Z"/><path d="M11.28,107.3a4.2,4.2,0,0,1,1.25.17,2.64,2.64,0,0,1,.88.48,1.86,1.86,0,0,1,.51.73,2.52,2.52,0,0,1,.17.93,2.49,2.49,0,0,1-.18,1,2.07,2.07,0,0,1-.52.75,2.42,2.42,0,0,1-.88.49,3.8,3.8,0,0,1-1.23.18h-1v2.54H8.93V107.3Zm0,3.64a2.06,2.06,0,0,0,.64-.09,1.3,1.3,0,0,0,.46-.27,1,1,0,0,0,.27-.42,1.59,1.59,0,0,0,.09-.55,1.51,1.51,0,0,0-.09-.53,1.09,1.09,0,0,0-.27-.4,1.22,1.22,0,0,0-.45-.25,2.13,2.13,0,0,0-.65-.09h-1v2.6Z"/><path d="M23.69,110.92a3.83,3.83,0,0,1-.27,1.46,3.28,3.28,0,0,1-1.9,1.89,4,4,0,0,1-1.5.26H17.27V107.3H20a4,4,0,0,1,1.5.27,3.41,3.41,0,0,1,1.16.75,3.31,3.31,0,0,1,.74,1.14A3.83,3.83,0,0,1,23.69,110.92Zm-1.38,0a3.54,3.54,0,0,0-.16-1.07,2.33,2.33,0,0,0-.46-.8,1.94,1.94,0,0,0-.72-.5,2.4,2.4,0,0,0-.95-.18h-1.4v5.09H20a2.4,2.4,0,0,0,.95-.17,2.07,2.07,0,0,0,.72-.5,2.33,2.33,0,0,0,.46-.8A3.59,3.59,0,0,0,22.31,110.92Z"/><path d="M26.88,109.32a2.87,2.87,0,0,1,1,.19,2.31,2.31,0,0,1,.8.52,2.41,2.41,0,0,1,.51.83,3.21,3.21,0,0,1,.18,1.1,3.17,3.17,0,0,1-.18,1.1,2.32,2.32,0,0,1-.51.83,2.2,2.2,0,0,1-.8.53,2.94,2.94,0,0,1-2.08,0,2.15,2.15,0,0,1-.81-.53,2.32,2.32,0,0,1-.51-.83,3.17,3.17,0,0,1-.18-1.1,3.21,3.21,0,0,1,.18-1.1A2.41,2.41,0,0,1,25,110a2.26,2.26,0,0,1,.81-.52A2.87,2.87,0,0,1,26.88,109.32Zm0,4.34a1.08,1.08,0,0,0,.95-.43,2.21,2.21,0,0,0,.31-1.26,2.24,2.24,0,0,0-.31-1.27,1.27,1.27,0,0,0-1.91,0,2.72,2.72,0,0,0,0,2.52A1.13,1.13,0,0,0,26.88,113.66Z"/><path d="M30.36,114.53V109.4h.75a.31.31,0,0,1,.32.23l.08.38a3.7,3.7,0,0,1,.28-.28,2.11,2.11,0,0,1,.31-.21,1.58,1.58,0,0,1,.36-.14,1.44,1.44,0,0,1,.43-.06,1.15,1.15,0,0,1,.79.27,1.49,1.49,0,0,1,.47.69,1.5,1.5,0,0,1,.3-.43,1.45,1.45,0,0,1,.4-.3,1.74,1.74,0,0,1,.45-.17,2.05,2.05,0,0,1,.49-.06,2.24,2.24,0,0,1,.76.13,1.55,1.55,0,0,1,.55.38,1.58,1.58,0,0,1,.34.61,2.64,2.64,0,0,1,.12.83v3.26H36.33v-3.26a1.13,1.13,0,0,0-.22-.74.8.8,0,0,0-.63-.25,1,1,0,0,0-.35.07.7.7,0,0,0-.29.19.91.91,0,0,0-.19.3,1.18,1.18,0,0,0-.07.43v3.26H33.34v-3.26a1.12,1.12,0,0,0-.21-.75.74.74,0,0,0-.6-.24,1,1,0,0,0-.51.14,1.59,1.59,0,0,0-.43.36v3.75Z"/><path d="M38.61,110.12a3,3,0,0,1,2.13-.81,2.09,2.09,0,0,1,.81.15,1.65,1.65,0,0,1,.6.41,1.83,1.83,0,0,1,.37.62,2.58,2.58,0,0,1,.13.8v3.24h-.56a.5.5,0,0,1-.27,0,.29.29,0,0,1-.15-.21l-.12-.37a3.45,3.45,0,0,1-.38.31,2.88,2.88,0,0,1-.38.22,2.71,2.71,0,0,1-.43.14,2.6,2.6,0,0,1-.5,0,2.23,2.23,0,0,1-.6-.08,1.29,1.29,0,0,1-.47-.27,1,1,0,0,1-.31-.43,1.45,1.45,0,0,1-.11-.61,1.21,1.21,0,0,1,.06-.38,1.07,1.07,0,0,1,.21-.37,1.62,1.62,0,0,1,.39-.33,2.53,2.53,0,0,1,.57-.27,5,5,0,0,1,.8-.19,7.61,7.61,0,0,1,1-.09v-.3a1.11,1.11,0,0,0-.22-.76.83.83,0,0,0-.63-.25,1.67,1.67,0,0,0-.5.07,2.29,2.29,0,0,0-.35.16l-.27.16a.5.5,0,0,1-.27.07.32.32,0,0,1-.22-.07.57.57,0,0,1-.15-.16Zm2.83,2.22a6.3,6.3,0,0,0-.9.1,2.13,2.13,0,0,0-.58.17.77.77,0,0,0-.32.24.59.59,0,0,0-.09.31.51.51,0,0,0,.19.46.78.78,0,0,0,.5.14,1.53,1.53,0,0,0,.66-.13,2.2,2.2,0,0,0,.54-.42Z"/><path d="M45.25,107.91a.73.73,0,0,1-.06.3.81.81,0,0,1-.17.24.85.85,0,0,1-.25.17.83.83,0,0,1-.62,0,.87.87,0,0,1-.41-.41.73.73,0,0,1-.06-.3.81.81,0,0,1,.06-.31.74.74,0,0,1,.17-.25.81.81,0,0,1,.24-.17.83.83,0,0,1,.62,0,.85.85,0,0,1,.25.17.74.74,0,0,1,.17.25A.81.81,0,0,1,45.25,107.91Zm-.16,1.49v5.13H43.85V109.4Z"/><path d="M47.5,110a2.22,2.22,0,0,1,.33-.28,1.69,1.69,0,0,1,.36-.23,1.88,1.88,0,0,1,.42-.14,1.92,1.92,0,0,1,1.22.09,1.28,1.28,0,0,1,.54.4,1.57,1.57,0,0,1,.33.61,2.47,2.47,0,0,1,.12.79v3.26H49.58v-3.26a1.13,1.13,0,0,0-.21-.73.84.84,0,0,0-.66-.26,1.27,1.27,0,0,0-.6.15,2.41,2.41,0,0,0-.53.39v3.71H46.35V109.4h.75a.31.31,0,0,1,.32.23Z"/><path d="M60.26,114.53H59a.53.53,0,0,1-.5-.27L57,112a.57.57,0,0,0-.19-.19.78.78,0,0,0-.3-.05H56v2.82H54.61V107.3h2.21a4.24,4.24,0,0,1,1.26.16,2.38,2.38,0,0,1,.86.42,1.76,1.76,0,0,1,.5.66,2.13,2.13,0,0,1,.16.84,2.17,2.17,0,0,1-.11.69,1.75,1.75,0,0,1-.31.59,1.88,1.88,0,0,1-.5.47,2.42,2.42,0,0,1-.67.31,1.88,1.88,0,0,1,.24.18,1.59,1.59,0,0,1,.2.24Zm-3.46-3.79a2.19,2.19,0,0,0,.66-.09,1.21,1.21,0,0,0,.46-.26,1.08,1.08,0,0,0,.28-.4,1.36,1.36,0,0,0,.09-.51,1,1,0,0,0-.37-.84,1.7,1.7,0,0,0-1.1-.3H56v2.4Z"/><path d="M61.46,112.12a2.63,2.63,0,0,0,.14.69,1.29,1.29,0,0,0,.29.47,1,1,0,0,0,.43.28,1.59,1.59,0,0,0,.55.09,1.53,1.53,0,0,0,.51-.07,1.67,1.67,0,0,0,.38-.15l.29-.16a.55.55,0,0,1,.24-.07.26.26,0,0,1,.23.12l.35.45a2.17,2.17,0,0,1-.46.4,2.37,2.37,0,0,1-.53.26,3,3,0,0,1-.57.14,3.48,3.48,0,0,1-.55,0,2.73,2.73,0,0,1-1-.18,2.26,2.26,0,0,1-.8-.52,2.5,2.5,0,0,1-.53-.86,3.37,3.37,0,0,1-.2-1.19,2.94,2.94,0,0,1,.17-1,2.24,2.24,0,0,1,.49-.8,2.4,2.4,0,0,1,.77-.55,2.64,2.64,0,0,1,1-.2,2.56,2.56,0,0,1,.89.16,2,2,0,0,1,.71.45,2.17,2.17,0,0,1,.46.73,2.78,2.78,0,0,1,.17,1,.82.82,0,0,1-.06.38.26.26,0,0,1-.23.09Zm2.36-.74a1.63,1.63,0,0,0-.07-.45,1.15,1.15,0,0,0-.2-.38,1,1,0,0,0-.35-.25,1.21,1.21,0,0,0-.48-.09,1.14,1.14,0,0,0-.84.3,1.47,1.47,0,0,0-.39.87Z"/><path d="M69,110.4a.42.42,0,0,1-.1.12.32.32,0,0,1-.14,0,.49.49,0,0,1-.2,0l-.23-.11a2.85,2.85,0,0,0-.31-.12,1.64,1.64,0,0,0-.41,0,1,1,0,0,0-.57.16.48.48,0,0,0-.21.4.39.39,0,0,0,.11.28.88.88,0,0,0,.28.2,3.22,3.22,0,0,0,.41.15l.45.15a3.66,3.66,0,0,1,.46.18,1.84,1.84,0,0,1,.4.26,1.2,1.2,0,0,1,.29.38,1.22,1.22,0,0,1,.11.53,1.69,1.69,0,0,1-.14.68,1.5,1.5,0,0,1-.39.54,2,2,0,0,1-.64.36,3.33,3.33,0,0,1-1.4.08,3.94,3.94,0,0,1-.49-.14,2.11,2.11,0,0,1-.43-.2,1.76,1.76,0,0,1-.34-.25l.28-.47a.53.53,0,0,1,.13-.13.36.36,0,0,1,.19,0,.43.43,0,0,1,.22.06l.24.14a1.51,1.51,0,0,0,.31.14,1.26,1.26,0,0,0,.47.07,1.32,1.32,0,0,0,.37,0,.8.8,0,0,0,.26-.14.48.48,0,0,0,.15-.2.59.59,0,0,0,0-.23.44.44,0,0,0-.11-.3,1.06,1.06,0,0,0-.28-.2l-.41-.15-.46-.15a3.8,3.8,0,0,1-.47-.18,1.91,1.91,0,0,1-.4-.28,1.18,1.18,0,0,1-.29-.4,1.43,1.43,0,0,1-.11-.58,1.54,1.54,0,0,1,.13-.6,1.39,1.39,0,0,1,.37-.5,1.92,1.92,0,0,1,.6-.34,2.65,2.65,0,0,1,.84-.13,2.54,2.54,0,0,1,1,.18,2.17,2.17,0,0,1,.72.46Z"/><path d="M72.52,109.32a2.82,2.82,0,0,1,1,.19,2.22,2.22,0,0,1,.8.52,2.29,2.29,0,0,1,.52.83,3.21,3.21,0,0,1,.18,1.1,3.17,3.17,0,0,1-.18,1.1,2.21,2.21,0,0,1-.52.83,2.12,2.12,0,0,1-.8.53,2.63,2.63,0,0,1-1,.19,2.69,2.69,0,0,1-1-.19,2.2,2.2,0,0,1-.8-.53,2.34,2.34,0,0,1-.52-.83A3.17,3.17,0,0,1,70,112a3.21,3.21,0,0,1,.18-1.1,2.44,2.44,0,0,1,.52-.83,2.31,2.31,0,0,1,.8-.52A2.89,2.89,0,0,1,72.52,109.32Zm0,4.34a1.07,1.07,0,0,0,.94-.43,2.13,2.13,0,0,0,.31-1.26,2.17,2.17,0,0,0-.31-1.27,1.07,1.07,0,0,0-.94-.43,1.09,1.09,0,0,0-1,.44,2.72,2.72,0,0,0,0,2.52A1.14,1.14,0,0,0,72.52,113.66Z"/><path d="M77.24,107.1v7.43H76V107.1Z"/><path d="M83.1,109.4l-2,5.13H80l-2-5.13h1a.42.42,0,0,1,.23.07.33.33,0,0,1,.13.16l1,2.74c0,.16.1.32.14.47s.07.31.1.46c0-.15.07-.3.11-.46s.09-.31.15-.47l1-2.74a.31.31,0,0,1,.12-.16.38.38,0,0,1,.22-.07Z"/><path d="M84.55,112.12a2.28,2.28,0,0,0,.14.69,1.29,1.29,0,0,0,.29.47,1.07,1.07,0,0,0,.42.28,1.83,1.83,0,0,0,1.07,0,1.88,1.88,0,0,0,.38-.15l.28-.16a.55.55,0,0,1,.24-.07.26.26,0,0,1,.23.12l.36.45a2.17,2.17,0,0,1-.46.4,2.24,2.24,0,0,1-.54.26,2.7,2.7,0,0,1-.56.14,3.6,3.6,0,0,1-.56,0,2.64,2.64,0,0,1-1-.18,2.17,2.17,0,0,1-.8-.52,2.52,2.52,0,0,1-.54-.86,3.38,3.38,0,0,1-.19-1.19,2.71,2.71,0,0,1,.17-1,2.22,2.22,0,0,1,.48-.8,2.34,2.34,0,0,1,.78-.55,2.59,2.59,0,0,1,1-.2,2.66,2.66,0,0,1,.9.16,1.92,1.92,0,0,1,.7.45,2,2,0,0,1,.46.73,2.78,2.78,0,0,1,.17,1A.82.82,0,0,1,88,112a.26.26,0,0,1-.23.09Zm2.35-.74a1.33,1.33,0,0,0-.07-.45,1,1,0,0,0-.2-.38,1,1,0,0,0-.34-.25,1.21,1.21,0,0,0-.48-.09,1.18,1.18,0,0,0-.85.3,1.6,1.6,0,0,0-.39.87Z"/><path d="M90.1,110.29a2.33,2.33,0,0,1,.57-.72,1.24,1.24,0,0,1,.78-.26,1,1,0,0,1,.57.15l-.08.93a.32.32,0,0,1-.07.13.25.25,0,0,1-.13,0,1,1,0,0,1-.22,0l-.29,0a1,1,0,0,0-.36.06.79.79,0,0,0-.29.18,1,1,0,0,0-.23.27q-.09.17-.18.36v3.16H88.94V109.4h.72a.31.31,0,0,1,.37.31Z"/></svg>