<?xml version="1.0" encoding="utf-8"?>
<!-- Generator: Adobe Illustrator 26.2.1, SVG Export Plug-In . SVG Version: 6.00 Build 0)  -->
<svg version="1.1" id="Layer_1" xmlns="http://www.w3.org/2000/svg" xmlns:xlink="http://www.w3.org/1999/xlink" x="0px" y="0px"
	 viewBox="0 0 494.6 147.9" style="enable-background:new 0 0 494.6 147.9;" xml:space="preserve">
<style type="text/css">
	.st0{fill:#14BF96;}
	.st1{fill:#FFD633;}
	.st2{fill:#2D2D2D;}
	.st3{font-family:'Monaco';}
	.st4{font-size:9.13px;}
	.st5{fill:none;stroke:#14BF96;stroke-width:1.9;stroke-miterlimit:10;}
	.st6{fill:#1A1A1A;}
	.st7{fill:#FFFFFF;}
	.st8{fill:#0A2A66;}
	.st9{fill:#37C5FD;}
	.st10{fill:#10A7E3;}
	.st11{fill:#65D0FA;}
	.st12{font-size:8px;}
	.st13{font-size:12px;}
</style>
<rect x="145.7" y="9.7" class="st0" width="63.1" height="14.5"/>
<rect x="145.5" y="12.1" class="st1" width="63.2" height="9.1"/>
<rect x="208.7" y="9.7" class="st0" width="63" height="14.5"/>
<rect x="208.7" y="12.1" class="st2" width="63" height="9.1"/>
<text transform="matrix(1 0 0 1 174.34 37.86)" class="st3 st4">1</text>
<path class="st5" d="M171.3,28.1h11.6c0.4,0,0.8,0.3,0.8,0.8v11c0,0.4-0.3,0.8-0.8,0.8h-11.6c-0.4,0-0.8-0.3-0.8-0.8v-11
	C170.5,28.5,170.9,28.1,171.3,28.1z"/>
<text transform="matrix(1 0 0 1 300.09 37.86)" class="st3 st4">1</text>
<path class="st5" d="M297.1,28.1h11.6c0.4,0,0.8,0.3,0.8,0.8v11c0,0.4-0.3,0.8-0.8,0.8h-11.6c-0.4,0-0.8-0.3-0.8-0.8v-11
	C296.3,28.5,296.6,28.1,297.1,28.1z"/>
<rect x="271.4" y="9.7" class="st0" width="63" height="14.5"/>
<rect x="271.2" y="12.1" class="st1" width="63.2" height="9.1"/>
<path class="st6" d="M234.4,28.1H246c0.4,0,0.8,0.3,0.8,0.8v11c0,0.4-0.3,0.8-0.8,0.8h-11.6c-0.4,0-0.8-0.3-0.8-0.8v-11
	C233.6,28.5,234,28.1,234.4,28.1z"/>
<path class="st5" d="M234.4,28.1H246c0.4,0,0.8,0.3,0.8,0.8v11c0,0.4-0.3,0.8-0.8,0.8h-11.6c-0.4,0-0.8-0.3-0.8-0.8v-11
	C233.6,28.5,234,28.1,234.4,28.1z"/>
<text transform="matrix(1 0 0 1 237.33 37.65)" class="st7 st3 st4">0</text>
<path class="st8" d="M2.7,0.1h132.6c1.5,0,2.7,1.2,2.7,2.7v132.6c0,1.5-1.2,2.7-2.7,2.7H2.7c-1.5,0-2.7-1.2-2.7-2.7V2.8
	C0,1.3,1.2,0.1,2.7,0.1z"/>
<rect x="5.9" y="6.1" class="st7" width="126.2" height="77.6"/>
<path class="st9" d="M0,83.7h138l0,0V144c0,2.1-1.7,3.9-3.9,3.9H3.9c-2.1,0-3.9-1.7-3.9-3.9V83.7L0,83.7z"/>
<path class="st10" d="M7,90.7h7c0.6,0,1.1,0.5,1.1,1.1v7c0,0.6-0.5,1.1-1.1,1.1H7c-0.6,0-1.1-0.5-1.1-1.1v-7
	C5.9,91.2,6.4,90.7,7,90.7z"/>
<path class="st10" d="M18.7,90.7h7c0.6,0,1.1,0.5,1.1,1.1v7c0,0.6-0.5,1.1-1.1,1.1h-7c-0.6,0-1.1-0.5-1.1-1.1v-7
	C17.6,91.2,18.1,90.7,18.7,90.7z"/>
<path class="st10" d="M30.4,90.7h7c0.6,0,1.1,0.5,1.1,1.1v7c0,0.6-0.5,1.1-1.1,1.1h-7c-0.6,0-1.1-0.5-1.1-1.1v-7
	C29.3,91.2,29.8,90.7,30.4,90.7z"/>
<path class="st10" d="M42.1,90.7h7c0.6,0,1.1,0.5,1.1,1.1v7c0,0.6-0.5,1.1-1.1,1.1h-7c-0.6,0-1.1-0.5-1.1-1.1v-7
	C41,91.2,41.5,90.7,42.1,90.7z"/>
<path class="st10" d="M53.8,90.7h7c0.6,0,1.1,0.5,1.1,1.1v7c0,0.6-0.5,1.1-1.1,1.1h-7c-0.6,0-1.1-0.5-1.1-1.1v-7
	C52.7,91.2,53.2,90.7,53.8,90.7z"/>
<path class="st10" d="M65.5,90.7h7c0.6,0,1.1,0.5,1.1,1.1v7c0,0.6-0.5,1.1-1.1,1.1h-7c-0.6,0-1.1-0.5-1.1-1.1v-7
	C64.4,91.2,64.9,90.7,65.5,90.7z"/>
<path class="st10" d="M77.2,90.7h7c0.6,0,1.1,0.5,1.1,1.1v7c0,0.6-0.5,1.1-1.1,1.1h-7c-0.6,0-1.1-0.5-1.1-1.1v-7
	C76.1,91.2,76.6,90.7,77.2,90.7z"/>
<path class="st10" d="M88.9,90.7h7c0.6,0,1.1,0.5,1.1,1.1v7c0,0.6-0.5,1.1-1.1,1.1h-7c-0.6,0-1.1-0.5-1.1-1.1v-7
	C87.8,91.2,88.3,90.7,88.9,90.7z"/>
<path class="st10" d="M100.6,90.7h7c0.6,0,1.1,0.5,1.1,1.1v7c0,0.6-0.5,1.1-1.1,1.1h-7c-0.6,0-1.1-0.5-1.1-1.1v-7
	C99.5,91.2,100,90.7,100.6,90.7z"/>
<path class="st10" d="M112.3,90.7h7c0.6,0,1.1,0.5,1.1,1.1v7c0,0.6-0.5,1.1-1.1,1.1h-7c-0.6,0-1.1-0.5-1.1-1.1v-7
	C111.2,91.2,111.7,90.7,112.3,90.7z"/>
<path class="st10" d="M124,90.7h7c0.6,0,1.1,0.5,1.1,1.1v7c0,0.6-0.5,1.1-1.1,1.1h-7c-0.6,0-1.1-0.5-1.1-1.1v-7
	C122.9,91.2,123.4,90.7,124,90.7z"/>
<path class="st10" d="M18.7,103.1h7c0.6,0,1.1,0.5,1.1,1.1v7c0,0.6-0.5,1.1-1.1,1.1h-7c-0.6,0-1.1-0.5-1.1-1.1v-7
	C17.6,103.6,18.1,103.1,18.7,103.1z"/>
<path class="st10" d="M30.4,103.1h7c0.6,0,1.1,0.5,1.1,1.1v7c0,0.6-0.5,1.1-1.1,1.1h-7c-0.6,0-1.1-0.5-1.1-1.1v-7
	C29.3,103.6,29.8,103.1,30.4,103.1z"/>
<path class="st10" d="M42.1,103.1h7c0.6,0,1.1,0.5,1.1,1.1v7c0,0.6-0.5,1.1-1.1,1.1h-7c-0.6,0-1.1-0.5-1.1-1.1v-7
	C41,103.6,41.5,103.1,42.1,103.1z"/>
<path class="st10" d="M53.8,103.1h7c0.6,0,1.1,0.5,1.1,1.1v7c0,0.6-0.5,1.1-1.1,1.1h-7c-0.6,0-1.1-0.5-1.1-1.1v-7
	C52.7,103.6,53.2,103.1,53.8,103.1z"/>
<path class="st10" d="M65.5,103.1h7c0.6,0,1.1,0.5,1.1,1.1v7c0,0.6-0.5,1.1-1.1,1.1h-7c-0.6,0-1.1-0.5-1.1-1.1v-7
	C64.4,103.6,64.9,103.1,65.5,103.1z"/>
<path class="st10" d="M77.2,103.1h7c0.6,0,1.1,0.5,1.1,1.1v7c0,0.6-0.5,1.1-1.1,1.1h-7c-0.6,0-1.1-0.5-1.1-1.1v-7
	C76.1,103.6,76.6,103.1,77.2,103.1z"/>
<path class="st10" d="M88.9,103.1h7c0.6,0,1.1,0.5,1.1,1.1v7c0,0.6-0.5,1.1-1.1,1.1h-7c-0.6,0-1.1-0.5-1.1-1.1v-7
	C87.8,103.6,88.3,103.1,88.9,103.1z"/>
<path class="st10" d="M100.6,103.1h7c0.6,0,1.1,0.5,1.1,1.1v7c0,0.6-0.5,1.1-1.1,1.1h-7c-0.6,0-1.1-0.5-1.1-1.1v-7
	C99.5,103.6,100,103.1,100.6,103.1z"/>
<path class="st10" d="M112.3,103.1h7c0.6,0,1.1,0.5,1.1,1.1v7c0,0.6-0.5,1.1-1.1,1.1h-7c-0.6,0-1.1-0.5-1.1-1.1v-7
	C111.2,103.6,111.7,103.1,112.3,103.1z"/>
<path class="st10" d="M7,115.5h7c0.6,0,1.1,0.5,1.1,1.1v7c0,0.6-0.5,1.1-1.1,1.1H7c-0.6,0-1.1-0.5-1.1-1.1v-7
	C5.9,116,6.4,115.5,7,115.5z"/>
<path class="st10" d="M18.7,115.5h7c0.6,0,1.1,0.5,1.1,1.1v7c0,0.6-0.5,1.1-1.1,1.1h-7c-0.6,0-1.1-0.5-1.1-1.1v-7
	C17.6,116,18.1,115.5,18.7,115.5z"/>
<path class="st10" d="M30.4,115.5h7c0.6,0,1.1,0.5,1.1,1.1v7c0,0.6-0.5,1.1-1.1,1.1h-7c-0.6,0-1.1-0.5-1.1-1.1v-7
	C29.3,116,29.8,115.5,30.4,115.5z"/>
<path class="st10" d="M42.1,115.5h7c0.6,0,1.1,0.5,1.1,1.1v7c0,0.6-0.5,1.1-1.1,1.1h-7c-0.6,0-1.1-0.5-1.1-1.1v-7
	C41,116,41.5,115.5,42.1,115.5z"/>
<path class="st10" d="M53.8,115.5h7c0.6,0,1.1,0.5,1.1,1.1v7c0,0.6-0.5,1.1-1.1,1.1h-7c-0.6,0-1.1-0.5-1.1-1.1v-7
	C52.7,116,53.2,115.5,53.8,115.5z"/>
<path class="st10" d="M65.5,115.5h7c0.6,0,1.1,0.5,1.1,1.1v7c0,0.6-0.5,1.1-1.1,1.1h-7c-0.6,0-1.1-0.5-1.1-1.1v-7
	C64.4,116,64.9,115.5,65.5,115.5z"/>
<path class="st10" d="M77.2,115.5h7c0.6,0,1.1,0.5,1.1,1.1v7c0,0.6-0.5,1.1-1.1,1.1h-7c-0.6,0-1.1-0.5-1.1-1.1v-7
	C76.1,116,76.6,115.5,77.2,115.5z"/>
<path class="st10" d="M88.9,115.5h7c0.6,0,1.1,0.5,1.1,1.1v7c0,0.6-0.5,1.1-1.1,1.1h-7c-0.6,0-1.1-0.5-1.1-1.1v-7
	C87.8,116,88.3,115.5,88.9,115.5z"/>
<path class="st10" d="M100.6,115.5h7c0.6,0,1.1,0.5,1.1,1.1v7c0,0.6-0.5,1.1-1.1,1.1h-7c-0.6,0-1.1-0.5-1.1-1.1v-7
	C99.5,116,100,115.5,100.6,115.5z"/>
<path class="st10" d="M112.3,115.5h7c0.6,0,1.1,0.5,1.1,1.1v7c0,0.6-0.5,1.1-1.1,1.1h-7c-0.6,0-1.1-0.5-1.1-1.1v-7
	C111.2,116,111.7,115.5,112.3,115.5z"/>
<path class="st10" d="M124,115.5h7c0.6,0,1.1,0.5,1.1,1.1v7c0,0.6-0.5,1.1-1.1,1.1h-7c-0.6,0-1.1-0.5-1.1-1.1v-7
	C122.9,116,123.4,115.5,124,115.5z"/>
<path class="st10" d="M44.2,115.5h49.6c0.6,0,1.1,0.5,1.1,1.1v7c0,0.6-0.5,1.1-1.1,1.1H44.2c-0.6,0-1.1-0.5-1.1-1.1v-7
	C43.1,116,43.6,115.5,44.2,115.5z"/>
<path class="st11" d="M52.9,128.4H83c1.2,0,2.2,1,2.2,2.2v10.1c0,1.2-1,2.2-2.2,2.2H52.9c-1.2,0-2.2-1-2.2-2.2v-10.1
	C50.7,129.4,51.7,128.4,52.9,128.4z"/>
<path class="st8" d="M359.3,0l132.6,0.1c1.5,0,2.7,1.2,2.7,2.7l-0.1,132.6c0,1.5-1.2,2.7-2.7,2.7L359.1,138c-1.5,0-2.7-1.2-2.7-2.7
	l0.1-132.6C356.6,1.2,357.8,0,359.3,0z"/>
<rect x="386.7" y="-18.3" transform="matrix(1.047197e-03 -1 1 1.047197e-03 380.2718 470.3215)" class="st7" width="77.6" height="126.2"/>
<path class="st9" d="M356.5,83.6l138,0.1l0,0l-0.1,60.3c0,2.1-1.7,3.9-3.9,3.9l0,0l-130.2-0.1c-2.1,0-3.9-1.7-3.9-3.9v0L356.5,83.6
	L356.5,83.6z"/>
<path class="st10" d="M363.5,90.6l7,0c0.6,0,1.1,0.5,1.1,1.1l0,7c0,0.6-0.5,1.1-1.1,1.1l-7,0c-0.6,0-1.1-0.5-1.1-1.1l0-7
	C362.4,91.1,362.9,90.6,363.5,90.6z"/>
<path class="st10" d="M375.2,90.6l7,0c0.6,0,1.1,0.5,1.1,1.1l0,7c0,0.6-0.5,1.1-1.1,1.1l-7,0c-0.6,0-1.1-0.5-1.1-1.1l0-7
	C374.1,91.1,374.6,90.6,375.2,90.6z"/>
<path class="st10" d="M386.9,90.6l7,0c0.6,0,1.1,0.5,1.1,1.1l0,7c0,0.6-0.5,1.1-1.1,1.1l-7,0c-0.6,0-1.1-0.5-1.1-1.1l0-7
	C385.8,91.1,386.3,90.6,386.9,90.6z"/>
<path class="st10" d="M398.6,90.6l7,0c0.6,0,1.1,0.5,1.1,1.1l0,7c0,0.6-0.5,1.1-1.1,1.1l-7,0c-0.6,0-1.1-0.5-1.1-1.1l0-7
	C397.5,91.1,398,90.6,398.6,90.6z"/>
<path class="st10" d="M410.3,90.6l7,0c0.6,0,1.1,0.5,1.1,1.1l0,7c0,0.6-0.5,1.1-1.1,1.1l-7,0c-0.6,0-1.1-0.5-1.1-1.1l0-7
	C409.2,91.1,409.7,90.6,410.3,90.6z"/>
<path class="st10" d="M422,90.6l7,0c0.6,0,1.1,0.5,1.1,1.1l0,7c0,0.6-0.5,1.1-1.1,1.1l-7,0c-0.6,0-1.1-0.5-1.1-1.1l0-7
	C420.9,91.1,421.4,90.6,422,90.6z"/>
<path class="st10" d="M433.7,90.7l7,0c0.6,0,1.1,0.5,1.1,1.1l0,7c0,0.6-0.5,1.1-1.1,1.1l-7,0c-0.6,0-1.1-0.5-1.1-1.1l0-7
	C432.6,91.1,433.1,90.7,433.7,90.7z"/>
<path class="st10" d="M445.4,90.7l7,0c0.6,0,1.1,0.5,1.1,1.1l0,7c0,0.6-0.5,1.1-1.1,1.1l-7,0c-0.6,0-1.1-0.5-1.1-1.1l0-7
	C444.3,91.2,444.8,90.7,445.4,90.7z"/>
<path class="st10" d="M457.1,90.7l7,0c0.6,0,1.1,0.5,1.1,1.1l0,7c0,0.6-0.5,1.1-1.1,1.1l-7,0c-0.6,0-1.1-0.5-1.1-1.1l0-7
	C456,91.2,456.5,90.7,457.1,90.7z"/>
<path class="st10" d="M468.8,90.7l7,0c0.6,0,1.1,0.5,1.1,1.1l0,7c0,0.6-0.5,1.1-1.1,1.1l-7,0c-0.6,0-1.1-0.5-1.1-1.1l0-7
	C467.7,91.2,468.2,90.7,468.8,90.7z"/>
<path class="st10" d="M480.5,90.7l7,0c0.6,0,1.1,0.5,1.1,1.1l0,7c0,0.6-0.5,1.1-1.1,1.1l-7,0c-0.6,0-1.1-0.5-1.1-1.1l0-7
	C479.4,91.2,479.9,90.7,480.5,90.7z"/>
<path class="st10" d="M375.2,103l7,0c0.6,0,1.1,0.5,1.1,1.1l0,7c0,0.6-0.5,1.1-1.1,1.1l-7,0c-0.6,0-1.1-0.5-1.1-1.1l0-7
	C374.1,103.5,374.6,103,375.2,103z"/>
<path class="st10" d="M386.9,103l7,0c0.6,0,1.1,0.5,1.1,1.1l0,7c0,0.6-0.5,1.1-1.1,1.1l-7,0c-0.6,0-1.1-0.5-1.1-1.1l0-7
	C385.8,103.5,386.3,103,386.9,103z"/>
<path class="st10" d="M398.6,103l7,0c0.6,0,1.1,0.5,1.1,1.1l0,7c0,0.6-0.5,1.1-1.1,1.1l-7,0c-0.6,0-1.1-0.5-1.1-1.1l0-7
	C397.5,103.5,398,103,398.6,103z"/>
<path class="st10" d="M410.3,103l7,0c0.6,0,1.1,0.5,1.1,1.1l0,7c0,0.6-0.5,1.1-1.1,1.1l-7,0c-0.6,0-1.1-0.5-1.1-1.1l0-7
	C409.2,103.5,409.7,103,410.3,103z"/>
<path class="st10" d="M422,103l7,0c0.6,0,1.1,0.5,1.1,1.1l0,7c0,0.6-0.5,1.1-1.1,1.1l-7,0c-0.6,0-1.1-0.5-1.1-1.1l0-7
	C420.9,103.5,421.4,103,422,103z"/>
<path class="st10" d="M433.7,103.1l7,0c0.6,0,1.1,0.5,1.1,1.1l0,7c0,0.6-0.5,1.1-1.1,1.1l-7,0c-0.6,0-1.1-0.5-1.1-1.1l0-7
	C432.6,103.5,433.1,103.1,433.7,103.1z"/>
<path class="st10" d="M445.4,103.1l7,0c0.6,0,1.1,0.5,1.1,1.1l0,7c0,0.6-0.5,1.1-1.1,1.1l-7,0c-0.6,0-1.1-0.5-1.1-1.1l0-7
	C444.3,103.6,444.8,103.1,445.4,103.1z"/>
<path class="st10" d="M457.1,103.1l7,0c0.6,0,1.1,0.5,1.1,1.1l0,7c0,0.6-0.5,1.1-1.1,1.1l-7,0c-0.6,0-1.1-0.5-1.1-1.1l0-7
	C456,103.6,456.5,103.1,457.1,103.1z"/>
<path class="st10" d="M468.8,103.1l7,0c0.6,0,1.1,0.5,1.1,1.1l0,7c0,0.6-0.5,1.1-1.1,1.1l-7,0c-0.6,0-1.1-0.5-1.1-1.1l0-7
	C467.7,103.6,468.2,103.1,468.8,103.1z"/>
<path class="st10" d="M363.5,115.4l7,0c0.6,0,1.1,0.5,1.1,1.1l0,7c0,0.6-0.5,1.1-1.1,1.1l-7,0c-0.6,0-1.1-0.5-1.1-1.1l0-7
	C362.4,115.9,362.9,115.4,363.5,115.4z"/>
<path class="st10" d="M375.2,115.4l7,0c0.6,0,1.1,0.5,1.1,1.1l0,7c0,0.6-0.5,1.1-1.1,1.1l-7,0c-0.6,0-1.1-0.5-1.1-1.1l0-7
	C374.1,115.9,374.6,115.4,375.2,115.4z"/>
<path class="st10" d="M386.9,115.4l7,0c0.6,0,1.1,0.5,1.1,1.1l0,7c0,0.6-0.5,1.1-1.1,1.1l-7,0c-0.6,0-1.1-0.5-1.1-1.1l0-7
	C385.8,115.9,386.3,115.4,386.9,115.4z"/>
<path class="st10" d="M398.6,115.4l7,0c0.6,0,1.1,0.5,1.1,1.1l0,7c0,0.6-0.5,1.1-1.1,1.1l-7,0c-0.6,0-1.1-0.5-1.1-1.1l0-7
	C397.5,115.9,398,115.4,398.6,115.4z"/>
<path class="st10" d="M410.3,115.4l7,0c0.6,0,1.1,0.5,1.1,1.1l0,7c0,0.6-0.5,1.1-1.1,1.1l-7,0c-0.6,0-1.1-0.5-1.1-1.1l0-7
	C409.2,115.9,409.7,115.4,410.3,115.4z"/>
<path class="st10" d="M422,115.4l7,0c0.6,0,1.1,0.5,1.1,1.1l0,7c0,0.6-0.5,1.1-1.1,1.1l-7,0c-0.6,0-1.1-0.5-1.1-1.1l0-7
	C420.9,115.9,421.4,115.4,422,115.4z"/>
<path class="st10" d="M433.7,115.5l7,0c0.6,0,1.1,0.5,1.1,1.1l0,7c0,0.6-0.5,1.1-1.1,1.1l-7,0c-0.6,0-1.1-0.5-1.1-1.1l0-7
	C432.6,115.9,433.1,115.5,433.7,115.5z"/>
<path class="st10" d="M445.4,115.5l7,0c0.6,0,1.1,0.5,1.1,1.1l0,7c0,0.6-0.5,1.1-1.1,1.1l-7,0c-0.6,0-1.1-0.5-1.1-1.1l0-7
	C444.3,116,444.8,115.5,445.4,115.5z"/>
<path class="st10" d="M457.1,115.5l7,0c0.6,0,1.1,0.5,1.1,1.1l0,7c0,0.6-0.5,1.1-1.1,1.1l-7,0c-0.6,0-1.1-0.5-1.1-1.1l0-7
	C456,116,456.5,115.5,457.1,115.5z"/>
<path class="st10" d="M468.8,115.5l7,0c0.6,0,1.1,0.5,1.1,1.1l0,7c0,0.6-0.5,1.1-1.1,1.1l-7,0c-0.6,0-1.1-0.5-1.1-1.1l0-7
	C467.7,116,468.2,115.5,468.8,115.5z"/>
<path class="st10" d="M480.5,115.5l7,0c0.6,0,1.1,0.5,1.1,1.1l0,7c0,0.6-0.5,1.1-1.1,1.1l-7,0c-0.6,0-1.1-0.5-1.1-1.1l0-7
	C479.4,116,479.9,115.5,480.5,115.5z"/>
<path class="st10" d="M400.7,115.4l49.6,0.1c0.6,0,1.1,0.5,1.1,1.1l0,7c0,0.6-0.5,1.1-1.1,1.1l-49.6-0.1c-0.6,0-1.1-0.5-1.1-1.1l0-7
	C399.6,115.9,400.1,115.4,400.7,115.4z"/>
<path class="st11" d="M409.3,128.4l30.1,0c1.2,0,2.2,1,2.2,2.2l0,10.1c0,1.2-1,2.2-2.2,2.2l-30.1,0c-1.2,0-2.2-1-2.2-2.2l0-10.1
	C407.1,129.4,408.1,128.4,409.3,128.4z"/>
<polygon class="st0" points="348.5,16.6 333.5,3.8 333.5,29.5 "/>
<rect x="285.2" y="65.2" class="st0" width="63" height="14.4"/>
<rect x="285.2" y="68" class="st2" width="63.2" height="9.1"/>
<rect x="222.2" y="65.2" class="st0" width="63.1" height="14.4"/>
<rect x="222.2" y="68" class="st1" width="63.1" height="9.1"/>
<text transform="matrix(1 0 0 1 187.34 95.86)" class="st3 st4">1</text>
<path class="st5" d="M184.3,86.2h11.6c0.4,0,0.8,0.3,0.8,0.8v11c0,0.4-0.3,0.8-0.8,0.8h-11.6c-0.4,0-0.8-0.3-0.8-0.8v-11
	C183.5,86.5,183.9,86.2,184.3,86.2z"/>
<rect x="159.5" y="65.2" class="st0" width="63.1" height="14.4"/>
<rect x="159.5" y="68" class="st1" width="63.2" height="9.1"/>
<polygon class="st0" points="144.5,72.6 159.5,85.5 159.5,59.8 "/>
<text transform="matrix(1 0 0 1 250.09 95.86)" class="st3 st4">1</text>
<path class="st5" d="M247,86.2h11.6c0.4,0,0.8,0.3,0.8,0.8v11c0,0.4-0.3,0.8-0.8,0.8H247c-0.4,0-0.8-0.3-0.8-0.8v-11
	C246.3,86.5,246.6,86.2,247,86.2z"/>
<path class="st6" d="M309.4,86.2H321c0.4,0,0.8,0.3,0.8,0.8v11c0,0.4-0.3,0.8-0.8,0.8h-11.6c-0.4,0-0.8-0.3-0.8-0.8v-11
	C308.6,86.5,309,86.2,309.4,86.2z"/>
<path class="st5" d="M309.4,86.2H321c0.4,0,0.8,0.3,0.8,0.8v11c0,0.4-0.3,0.8-0.8,0.8h-11.6c-0.4,0-0.8-0.3-0.8-0.8v-11
	C308.6,86.5,309,86.2,309.4,86.2z"/>
<text transform="matrix(1 0 0 1 312.33 95.65)" class="st7 st3 st4">0</text>
<text transform="matrix(1 0 0 1 403.91 20)" class="st3 st12">Received:</text>
<text transform="matrix(1 0 0 1 414.71 34.4)" class="st3 st13">101</text>
<text transform="matrix(1 0 0 1 413.51 58.4)" class="st3 st12">Sent:</text>
<text transform="matrix(1 0 0 1 414.71 72.8)" class="st3 st13">110</text>
<text transform="matrix(1 0 0 1 57.01 20)" class="st3 st12">Sent:</text>
<text transform="matrix(1 0 0 1 58.21 34.4)" class="st3 st13">101</text>
<text transform="matrix(1 0 0 1 47.41 58.4)" class="st3 st12">Received:</text>
<text transform="matrix(1 0 0 1 58.21 72.8)" class="st3 st13">110</text>
</svg>
