<svg id="Layer_1" data-name="Layer 1" xmlns="http://www.w3.org/2000/svg" viewBox="0 0 430.26 99.59"><defs><style>.cls-1{fill:#14bf96;}.cls-2{fill:#fff;}.cls-3{fill:#ffd633;}.cls-4{fill:#37c5fd;}.cls-5{fill:#0a2a66;}.cls-6{fill:#ccfbf0;}.cls-7{font-size:13px;font-family:Monaco, Monaco;}</style></defs><title>ethernet</title><rect class="cls-1" x="93.25" y="43.72" width="245.12" height="20.43"/><rect class="cls-2" x="92.98" y="47.22" width="247" height="12.9"/><polygon class="cls-3" points="97.83 53.54 108.66 58.3 108.74 53.48 116.9 56.41 106.08 48.41 106.08 53.17 97.83 49.59 97.83 53.54"/><polygon class="cls-3" points="119.6 54.08 130.43 58.84 130.51 54.02 138.67 56.95 127.85 48.95 127.85 53.71 119.6 50.12 119.6 54.08"/><polygon class="cls-3" points="141.37 53.54 152.2 58.3 152.28 53.48 160.44 56.41 149.63 48.41 149.63 53.17 141.37 49.59 141.37 53.54"/><polygon class="cls-3" points="163.14 54.08 173.97 58.84 174.05 54.02 182.21 56.95 171.4 48.95 171.4 53.71 163.14 50.12 163.14 54.08"/><polygon class="cls-3" points="184.91 53.54 195.74 58.3 195.82 53.48 203.98 56.41 193.16 48.41 193.16 53.17 184.91 49.59 184.91 53.54"/><polygon class="cls-3" points="206.69 54.08 217.51 58.84 217.59 54.02 225.75 56.95 214.94 48.95 214.94 53.71 206.69 50.12 206.69 54.08"/><polygon class="cls-3" points="228.46 54.08 239.28 58.84 239.37 54.02 247.52 56.95 236.71 48.95 236.71 53.71 228.46 50.12 228.46 54.08"/><polygon class="cls-3" points="250.23 54.62 261.05 59.37 261.13 54.56 269.29 57.49 258.48 49.48 258.48 54.25 250.23 50.66 250.23 54.62"/><polygon class="cls-3" points="272 54.08 282.82 58.84 282.91 54.02 291.06 56.95 280.25 48.95 280.25 53.71 272 50.12 272 54.08"/><polygon class="cls-3" points="293.77 54.62 304.59 59.37 304.68 54.56 312.83 57.49 302.02 49.48 302.02 54.25 293.77 50.66 293.77 54.62"/><polygon class="cls-3" points="315.54 53.54 326.37 58.3 326.45 53.48 334.61 56.41 323.79 48.41 323.79 53.17 315.54 49.59 315.54 53.54"/><rect class="cls-4" y="0.38" width="78.22" height="99.21" rx="2.06" ry="2.06"/><rect class="cls-5" x="4.21" y="19.03" width="69.2" height="6.02"/><rect class="cls-5" x="4.21" y="31.82" width="69.2" height="6.02"/><rect class="cls-5" x="4.81" y="44.61" width="69.2" height="6.02"/><rect class="cls-5" x="4.81" y="57.39" width="69.2" height="6.02"/><rect class="cls-5" x="4.81" y="70.18" width="69.2" height="6.02"/><circle class="cls-6" cx="68.6" cy="8.8" r="3.61"/><rect class="cls-5" x="4.81" y="82.97" width="69.2" height="6.02"/><rect class="cls-4" x="352.04" width="78.22" height="99.21" rx="2.06" ry="2.06"/><rect class="cls-5" x="356.25" y="18.65" width="69.2" height="6.02"/><rect class="cls-5" x="356.25" y="31.44" width="69.2" height="6.02"/><rect class="cls-5" x="356.85" y="44.23" width="69.2" height="6.02"/><rect class="cls-5" x="356.85" y="57.01" width="69.2" height="6.02"/><rect class="cls-5" x="356.85" y="69.8" width="69.2" height="6.02"/><circle class="cls-6" cx="420.64" cy="8.42" r="3.61"/><rect class="cls-5" x="356.85" y="82.59" width="69.2" height="6.02"/><text class="cls-7" transform="translate(120.6 34.45)">1 0 0 1 1 0 1 1 0 1 1 0</text></svg>